<svg width="27" height="20" viewBox="0 0 27 20" fill="none" xmlns="http://www.w3.org/2000/svg">
<g clip-path="url(#clip0_7366_5413)">
<path fill-rule="evenodd" clip-rule="evenodd" d="M14.0061 0H27V20H14L14.0061 0Z" fill="white"/>
<path fill-rule="evenodd" clip-rule="evenodd" d="M0 0H14V20H0V0Z" fill="#319400"/>
<path fill-rule="evenodd" clip-rule="evenodd" d="M17.0488 6.69472C16.2827 6.03056 15.2452 5.68716 14.1617 5.83554C12.1645 6.10903 10.7671 7.94979 11.0406 9.94699C11.3141 11.9442 13.1549 13.3415 15.1521 13.068C15.8965 12.9661 16.5576 12.6464 17.0799 12.182C16.3836 13.0983 15.3379 13.7491 14.1077 13.9176C11.6454 14.2548 9.37593 12.532 9.03874 10.0697C8.70156 7.60742 10.4243 5.33799 12.8866 5.00081C14.534 4.77522 16.095 5.47166 17.0488 6.69472Z" fill="#FF0000"/>
<path d="M15.25 7L15.7552 8.55471H17.3899L16.0674 9.51558L16.5725 11.0703L15.25 10.1094L13.9275 11.0703L14.4326 9.51558L13.1101 8.55471H14.7448L15.25 7Z" fill="#FF0000"/>
</g>
<defs>
<clipPath id="clip0_7366_5413">
<rect width="26.6667" height="20" rx="4" fill="white"/>
</clipPath>
</defs>
</svg>
