<svg width="27" height="20" viewBox="0 0 27 20" fill="none" xmlns="http://www.w3.org/2000/svg">
<g clip-path="url(#clip0_7368_5426)">
<rect width="26.6667" height="20" rx="4" fill="#FF0000"/>
<path fill-rule="evenodd" clip-rule="evenodd" d="M0.0125961 0H27V20H0L0.0125961 0Z" fill="#FF0000"/>
<circle cx="13.5" cy="10.5" r="6.5" fill="white"/>
<path fill-rule="evenodd" clip-rule="evenodd" d="M17.0488 7.69472C16.2827 7.03056 15.2452 6.68716 14.1617 6.83554C12.1645 7.10903 10.7671 8.94979 11.0406 10.947C11.3141 12.9442 13.1549 14.3415 15.1521 14.068C15.8965 13.9661 16.5576 13.6464 17.0799 13.182C16.3836 14.0983 15.3379 14.7491 14.1077 14.9176C11.6454 15.2548 9.37593 13.532 9.03874 11.0697C8.70156 8.60742 10.4243 6.33799 12.8866 6.00081C14.534 5.77522 16.095 6.47166 17.0488 7.69472Z" fill="#FF0000"/>
<path d="M15.25 8L15.7552 9.55471H17.3899L16.0674 10.5156L16.5725 12.0703L15.25 11.1094L13.9275 12.0703L14.4326 10.5156L13.1101 9.55471H14.7448L15.25 8Z" fill="#FF0000"/>
</g>
<defs>
<clipPath id="clip0_7368_5426">
<rect width="26.6667" height="20" rx="4" fill="white"/>
</clipPath>
</defs>
</svg>
