<svg width="27" height="20" viewBox="0 0 27 20" fill="none" xmlns="http://www.w3.org/2000/svg">
<g clip-path="url(#clip0_7009_5405)">
<path d="M0 0H8.8875V20H0V0Z" fill="#007A5E"/>
<path d="M8.8877 0H17.7794V20H8.8877V0Z" fill="#CE1126"/>
<path d="M17.7793 0H26.6668V20H17.7793V0Z" fill="#FCD116"/>
<path d="M13.3335 7.62891L12.5928 9.88075L13.7187 10.2659L13.3335 7.62891Z" fill="#FCD116"/>
<path d="M13.3335 7.62891L14.0742 9.88075L12.9483 10.2659L13.3335 7.62891Z" fill="#FCD116"/>
<path d="M15.5878 9.26699L13.2173 9.25836L13.1988 10.4482L15.5878 9.26699Z" fill="#FCD116"/>
<path d="M15.588 9.26622L13.6753 10.6666L12.961 9.71477L15.588 9.26622Z" fill="#FCD116"/>
<path d="M14.7264 11.9178L14.0021 9.66064L12.8648 10.0108L14.7264 11.9178Z" fill="#FCD116"/>
<path d="M14.7262 11.9181L12.8033 10.5317L13.4878 9.55831L14.7262 11.9181Z" fill="#FCD116"/>
<path d="M11.9403 11.9162L13.8632 10.5298L13.1787 9.55636L11.9403 11.9162Z" fill="#FCD116"/>
<path d="M11.9401 11.9159L12.6644 9.65869L13.8017 10.0089L11.9401 11.9159Z" fill="#FCD116"/>
<path d="M11.079 9.26622L12.9917 10.6666L13.706 9.71477L11.079 9.26622Z" fill="#FCD116"/>
<path d="M11.0792 9.26699L13.4497 9.25836L13.4681 10.4482L11.0792 9.26699Z" fill="#FCD116"/>
</g>
<defs>
<clipPath id="clip0_7009_5405">
<rect width="26.6667" height="20" rx="4" fill="white"/>
</clipPath>
</defs>
</svg>
