<svg width="27" height="20" viewBox="0 0 27 20" fill="none" xmlns="http://www.w3.org/2000/svg">
<g clip-path="url(#clip0_7372_5476)">
<path fill-rule="evenodd" clip-rule="evenodd" d="M26.6667 20H0V0H26.6667V20Z" fill="white"/>
<path fill-rule="evenodd" clip-rule="evenodd" d="M27 2H0V0H27V2Z" fill="#FF0000"/>
<path fill-rule="evenodd" clip-rule="evenodd" d="M27 14H0V12H27V14Z" fill="#FF0000"/>
<path fill-rule="evenodd" clip-rule="evenodd" d="M27 11H0V9H27V11Z" fill="#FF0000"/>
<path fill-rule="evenodd" clip-rule="evenodd" d="M27 8H0V6H27V8Z" fill="#FF0000"/>
<path fill-rule="evenodd" clip-rule="evenodd" d="M27 5H0V3H27V5Z" fill="#FF0000"/>
<path fill-rule="evenodd" clip-rule="evenodd" d="M27 17H0V15H27V17Z" fill="#FF0000"/>
<path fill-rule="evenodd" clip-rule="evenodd" d="M27 20H0V18H27V20Z" fill="#FF0000"/>
<path fill-rule="evenodd" clip-rule="evenodd" d="M12 11H0V0H12V11Z" fill="#0B429F"/>
<path fill-rule="evenodd" clip-rule="evenodd" d="M13 11H0V0H13V11Z" fill="#0B429F"/>
<path d="M1.82402 1L1.57812 1.74752L1.95188 1.87538L1.82402 1Z" fill="#F7F7F7"/>
<path d="M1.82393 1L2.06982 1.74752L1.69607 1.87538L1.82393 1Z" fill="#F7F7F7"/>
<path d="M2.57208 1.54441L1.78516 1.54154L1.77905 1.93652L2.57208 1.54441Z" fill="#F7F7F7"/>
<path d="M2.57196 1.54349L1.93702 2.00834L1.69992 1.69239L2.57196 1.54349Z" fill="#F7F7F7"/>
<path d="M2.28691 2.42383L2.04646 1.67454L1.66893 1.79079L2.28691 2.42383Z" fill="#F7F7F7"/>
<path d="M2.28682 2.42383L1.64851 1.96361L1.87573 1.64047L2.28682 2.42383Z" fill="#F7F7F7"/>
<path d="M1.36161 2.42383L1.99993 1.96361L1.77271 1.64047L1.36161 2.42383Z" fill="#F7F7F7"/>
<path d="M1.36153 2.42383L1.60198 1.67454L1.97951 1.79079L1.36153 2.42383Z" fill="#F7F7F7"/>
<path d="M1.07599 1.54544L1.71093 2.01029L1.94803 1.69434L1.07599 1.54544Z" fill="#F7F7F7"/>
<path d="M1.07587 1.54636L1.86279 1.5435L1.86889 1.93847L1.07587 1.54636Z" fill="#F7F7F7"/>
<path d="M3.47197 1L3.22607 1.74752L3.59983 1.87538L3.47197 1Z" fill="#F7F7F7"/>
<path d="M3.47188 1L3.71777 1.74752L3.34402 1.87538L3.47188 1Z" fill="#F7F7F7"/>
<path d="M4.22003 1.54441L3.43311 1.54154L3.427 1.93652L4.22003 1.54441Z" fill="#F7F7F7"/>
<path d="M4.21991 1.54349L3.58497 2.00834L3.34786 1.69239L4.21991 1.54349Z" fill="#F7F7F7"/>
<path d="M3.93486 2.42383L3.69441 1.67454L3.31688 1.79079L3.93486 2.42383Z" fill="#F7F7F7"/>
<path d="M3.93477 2.42383L3.29646 1.96361L3.52368 1.64047L3.93477 2.42383Z" fill="#F7F7F7"/>
<path d="M3.00956 2.42383L3.64787 1.96361L3.42066 1.64047L3.00956 2.42383Z" fill="#F7F7F7"/>
<path d="M3.00948 2.42383L3.24993 1.67454L3.62746 1.79079L3.00948 2.42383Z" fill="#F7F7F7"/>
<path d="M2.72393 1.54544L3.35888 2.01029L3.59598 1.69434L2.72393 1.54544Z" fill="#F7F7F7"/>
<path d="M2.72382 1.54636L3.51073 1.5435L3.51684 1.93847L2.72382 1.54636Z" fill="#F7F7F7"/>
<path d="M5.11992 1L4.87402 1.74752L5.24778 1.87538L5.11992 1Z" fill="#F7F7F7"/>
<path d="M5.11983 1L5.36572 1.74752L4.99196 1.87538L5.11983 1Z" fill="#F7F7F7"/>
<path d="M5.86798 1.54441L5.08106 1.54154L5.07495 1.93652L5.86798 1.54441Z" fill="#F7F7F7"/>
<path d="M5.86786 1.54349L5.23292 2.00834L4.99581 1.69239L5.86786 1.54349Z" fill="#F7F7F7"/>
<path d="M5.58281 2.42383L5.34236 1.67454L4.96483 1.79079L5.58281 2.42383Z" fill="#F7F7F7"/>
<path d="M5.58272 2.42383L4.94441 1.96361L5.17163 1.64047L5.58272 2.42383Z" fill="#F7F7F7"/>
<path d="M4.65751 2.42383L5.29582 1.96361L5.0686 1.64047L4.65751 2.42383Z" fill="#F7F7F7"/>
<path d="M4.65743 2.42383L4.89787 1.67454L5.27541 1.79079L4.65743 2.42383Z" fill="#F7F7F7"/>
<path d="M4.37188 1.54544L5.00683 2.01029L5.24393 1.69434L4.37188 1.54544Z" fill="#F7F7F7"/>
<path d="M4.37177 1.54636L5.15868 1.5435L5.16479 1.93847L4.37177 1.54636Z" fill="#F7F7F7"/>
<path d="M6.76787 1L6.52197 1.74752L6.89573 1.87538L6.76787 1Z" fill="#F7F7F7"/>
<path d="M6.76827 1L7.01416 1.74752L6.6404 1.87538L6.76827 1Z" fill="#F7F7F7"/>
<path d="M7.51593 1.54441L6.72901 1.54154L6.7229 1.93652L7.51593 1.54441Z" fill="#F7F7F7"/>
<path d="M7.51581 1.54349L6.88087 2.00834L6.64376 1.69239L7.51581 1.54349Z" fill="#F7F7F7"/>
<path d="M7.23027 2.42383L6.98982 1.67454L6.61229 1.79079L7.23027 2.42383Z" fill="#F7F7F7"/>
<path d="M7.23018 2.42383L6.59187 1.96361L6.81909 1.64047L7.23018 2.42383Z" fill="#F7F7F7"/>
<path d="M6.30546 2.42383L6.94377 1.96361L6.71655 1.64047L6.30546 2.42383Z" fill="#F7F7F7"/>
<path d="M6.30538 2.42383L6.54582 1.67454L6.92336 1.79079L6.30538 2.42383Z" fill="#F7F7F7"/>
<path d="M6.01983 1.54544L6.65478 2.01029L6.89188 1.69434L6.01983 1.54544Z" fill="#F7F7F7"/>
<path d="M6.01972 1.54636L6.80663 1.5435L6.81274 1.93847L6.01972 1.54636Z" fill="#F7F7F7"/>
<path d="M8.41582 1L8.16992 1.74752L8.54368 1.87538L8.41582 1Z" fill="#F7F7F7"/>
<path d="M8.41573 1L8.66162 1.74752L8.28786 1.87538L8.41573 1Z" fill="#F7F7F7"/>
<path d="M9.16388 1.54441L8.37696 1.54154L8.37085 1.93652L9.16388 1.54441Z" fill="#F7F7F7"/>
<path d="M9.16376 1.54349L8.52882 2.00834L8.29171 1.69239L9.16376 1.54349Z" fill="#F7F7F7"/>
<path d="M8.8787 2.42383L8.63826 1.67454L8.26072 1.79079L8.8787 2.42383Z" fill="#F7F7F7"/>
<path d="M8.87862 2.42383L8.24031 1.96361L8.46753 1.64047L8.87862 2.42383Z" fill="#F7F7F7"/>
<path d="M7.95341 2.42383L8.59172 1.96361L8.3645 1.64047L7.95341 2.42383Z" fill="#F7F7F7"/>
<path d="M7.95333 2.42383L8.19377 1.67454L8.57131 1.79079L7.95333 2.42383Z" fill="#F7F7F7"/>
<path d="M7.66778 1.54544L8.30273 2.01029L8.53983 1.69434L7.66778 1.54544Z" fill="#F7F7F7"/>
<path d="M7.66767 1.54636L8.45458 1.5435L8.46069 1.93847L7.66767 1.54636Z" fill="#F7F7F7"/>
<path d="M10.0643 1L9.81836 1.74752L10.1921 1.87538L10.0643 1Z" fill="#F7F7F7"/>
<path d="M10.0642 1L10.3101 1.74752L9.9363 1.87538L10.0642 1Z" fill="#F7F7F7"/>
<path d="M10.8123 1.54441L10.0254 1.54154L10.0193 1.93652L10.8123 1.54441Z" fill="#F7F7F7"/>
<path d="M10.8122 1.54349L10.1773 2.00834L9.94015 1.69239L10.8122 1.54349Z" fill="#F7F7F7"/>
<path d="M10.5271 2.42383L10.2867 1.67454L9.90916 1.79079L10.5271 2.42383Z" fill="#F7F7F7"/>
<path d="M10.5271 2.42383L9.88875 1.96361L10.116 1.64047L10.5271 2.42383Z" fill="#F7F7F7"/>
<path d="M9.60185 2.42383L10.2402 1.96361L10.0129 1.64047L9.60185 2.42383Z" fill="#F7F7F7"/>
<path d="M9.60176 2.42383L9.84221 1.67454L10.2197 1.79079L9.60176 2.42383Z" fill="#F7F7F7"/>
<path d="M9.31622 1.54544L9.95116 2.01029L10.1883 1.69434L9.31622 1.54544Z" fill="#F7F7F7"/>
<path d="M9.3161 1.54636L10.103 1.5435L10.1091 1.93847L9.3161 1.54636Z" fill="#F7F7F7"/>
<path d="M11.7122 1L11.4663 1.74752L11.8401 1.87538L11.7122 1Z" fill="#F7F7F7"/>
<path d="M11.7121 1L11.958 1.74752L11.5842 1.87538L11.7121 1Z" fill="#F7F7F7"/>
<path d="M12.4603 1.54441L11.6733 1.54154L11.6672 1.93652L12.4603 1.54441Z" fill="#F7F7F7"/>
<path d="M12.4601 1.54349L11.8252 2.00834L11.5881 1.69239L12.4601 1.54349Z" fill="#F7F7F7"/>
<path d="M12.1751 2.42383L11.9346 1.67454L11.5571 1.79079L12.1751 2.42383Z" fill="#F7F7F7"/>
<path d="M12.175 2.42383L11.5367 1.96361L11.7639 1.64047L12.175 2.42383Z" fill="#F7F7F7"/>
<path d="M11.2498 2.42383L11.8881 1.96361L11.6609 1.64047L11.2498 2.42383Z" fill="#F7F7F7"/>
<path d="M11.2497 2.42383L11.4902 1.67454L11.8677 1.79079L11.2497 2.42383Z" fill="#F7F7F7"/>
<path d="M10.9642 1.54544L11.5991 2.01029L11.8362 1.69434L10.9642 1.54544Z" fill="#F7F7F7"/>
<path d="M10.9641 1.54636L11.751 1.5435L11.7571 1.93847L10.9641 1.54636Z" fill="#F7F7F7"/>
<path d="M1.82402 2.56836L1.57812 3.31588L1.95188 3.44374L1.82402 2.56836Z" fill="#F7F7F7"/>
<path d="M1.82393 2.56836L2.06982 3.31588L1.69607 3.44374L1.82393 2.56836Z" fill="#F7F7F7"/>
<path d="M2.57208 3.11276L1.78516 3.1099L1.77905 3.50488L2.57208 3.11276Z" fill="#F7F7F7"/>
<path d="M2.57196 3.11184L1.93702 3.5767L1.69992 3.26075L2.57196 3.11184Z" fill="#F7F7F7"/>
<path d="M2.28691 3.99219L2.04646 3.2429L1.66893 3.35915L2.28691 3.99219Z" fill="#F7F7F7"/>
<path d="M2.28682 3.99219L1.64851 3.53197L1.87573 3.20883L2.28682 3.99219Z" fill="#F7F7F7"/>
<path d="M1.36161 3.99219L1.99993 3.53197L1.77271 3.20883L1.36161 3.99219Z" fill="#F7F7F7"/>
<path d="M1.36153 3.99219L1.60198 3.2429L1.97951 3.35915L1.36153 3.99219Z" fill="#F7F7F7"/>
<path d="M1.07599 3.1138L1.71093 3.57865L1.94803 3.2627L1.07599 3.1138Z" fill="#F7F7F7"/>
<path d="M1.07587 3.11472L1.86279 3.11185L1.86889 3.50683L1.07587 3.11472Z" fill="#F7F7F7"/>
<path d="M3.47197 2.56836L3.22607 3.31588L3.59983 3.44374L3.47197 2.56836Z" fill="#F7F7F7"/>
<path d="M3.47188 2.56836L3.71777 3.31588L3.34402 3.44374L3.47188 2.56836Z" fill="#F7F7F7"/>
<path d="M4.22003 3.11276L3.43311 3.1099L3.427 3.50488L4.22003 3.11276Z" fill="#F7F7F7"/>
<path d="M4.21991 3.11184L3.58497 3.5767L3.34786 3.26075L4.21991 3.11184Z" fill="#F7F7F7"/>
<path d="M3.93486 3.99219L3.69441 3.2429L3.31688 3.35915L3.93486 3.99219Z" fill="#F7F7F7"/>
<path d="M3.93477 3.99219L3.29646 3.53197L3.52368 3.20883L3.93477 3.99219Z" fill="#F7F7F7"/>
<path d="M3.00956 3.99219L3.64787 3.53197L3.42066 3.20883L3.00956 3.99219Z" fill="#F7F7F7"/>
<path d="M3.00948 3.99219L3.24993 3.2429L3.62746 3.35915L3.00948 3.99219Z" fill="#F7F7F7"/>
<path d="M2.72393 3.1138L3.35888 3.57865L3.59598 3.2627L2.72393 3.1138Z" fill="#F7F7F7"/>
<path d="M2.72382 3.11472L3.51073 3.11185L3.51684 3.50683L2.72382 3.11472Z" fill="#F7F7F7"/>
<path d="M5.11992 2.56836L4.87402 3.31588L5.24778 3.44374L5.11992 2.56836Z" fill="#F7F7F7"/>
<path d="M5.11983 2.56836L5.36572 3.31588L4.99196 3.44374L5.11983 2.56836Z" fill="#F7F7F7"/>
<path d="M5.86798 3.11276L5.08106 3.1099L5.07495 3.50488L5.86798 3.11276Z" fill="#F7F7F7"/>
<path d="M5.86786 3.11184L5.23292 3.5767L4.99581 3.26075L5.86786 3.11184Z" fill="#F7F7F7"/>
<path d="M5.58281 3.99219L5.34236 3.2429L4.96483 3.35915L5.58281 3.99219Z" fill="#F7F7F7"/>
<path d="M5.58272 3.99219L4.94441 3.53197L5.17163 3.20883L5.58272 3.99219Z" fill="#F7F7F7"/>
<path d="M4.65751 3.99219L5.29582 3.53197L5.0686 3.20883L4.65751 3.99219Z" fill="#F7F7F7"/>
<path d="M4.65743 3.99219L4.89787 3.2429L5.27541 3.35915L4.65743 3.99219Z" fill="#F7F7F7"/>
<path d="M4.37188 3.1138L5.00683 3.57865L5.24393 3.2627L4.37188 3.1138Z" fill="#F7F7F7"/>
<path d="M4.37177 3.11472L5.15868 3.11185L5.16479 3.50683L4.37177 3.11472Z" fill="#F7F7F7"/>
<path d="M6.76787 2.56836L6.52197 3.31588L6.89573 3.44374L6.76787 2.56836Z" fill="#F7F7F7"/>
<path d="M6.76827 2.56836L7.01416 3.31588L6.6404 3.44374L6.76827 2.56836Z" fill="#F7F7F7"/>
<path d="M7.51593 3.11276L6.72901 3.1099L6.7229 3.50488L7.51593 3.11276Z" fill="#F7F7F7"/>
<path d="M7.51581 3.11184L6.88087 3.5767L6.64376 3.26075L7.51581 3.11184Z" fill="#F7F7F7"/>
<path d="M7.23027 3.99219L6.98982 3.2429L6.61229 3.35915L7.23027 3.99219Z" fill="#F7F7F7"/>
<path d="M7.23018 3.99219L6.59187 3.53197L6.81909 3.20883L7.23018 3.99219Z" fill="#F7F7F7"/>
<path d="M6.30546 3.99219L6.94377 3.53197L6.71655 3.20883L6.30546 3.99219Z" fill="#F7F7F7"/>
<path d="M6.30538 3.99219L6.54582 3.2429L6.92336 3.35915L6.30538 3.99219Z" fill="#F7F7F7"/>
<path d="M6.01983 3.1138L6.65478 3.57865L6.89188 3.2627L6.01983 3.1138Z" fill="#F7F7F7"/>
<path d="M6.01972 3.11472L6.80663 3.11185L6.81274 3.50683L6.01972 3.11472Z" fill="#F7F7F7"/>
<path d="M8.41582 2.56836L8.16992 3.31588L8.54368 3.44374L8.41582 2.56836Z" fill="#F7F7F7"/>
<path d="M8.41573 2.56836L8.66162 3.31588L8.28786 3.44374L8.41573 2.56836Z" fill="#F7F7F7"/>
<path d="M9.16388 3.11276L8.37696 3.1099L8.37085 3.50488L9.16388 3.11276Z" fill="#F7F7F7"/>
<path d="M9.16376 3.11184L8.52882 3.5767L8.29171 3.26075L9.16376 3.11184Z" fill="#F7F7F7"/>
<path d="M8.8787 3.99219L8.63826 3.2429L8.26072 3.35915L8.8787 3.99219Z" fill="#F7F7F7"/>
<path d="M8.87862 3.99219L8.24031 3.53197L8.46753 3.20883L8.87862 3.99219Z" fill="#F7F7F7"/>
<path d="M7.95341 3.99219L8.59172 3.53197L8.3645 3.20883L7.95341 3.99219Z" fill="#F7F7F7"/>
<path d="M7.95333 3.99219L8.19377 3.2429L8.57131 3.35915L7.95333 3.99219Z" fill="#F7F7F7"/>
<path d="M7.66778 3.1138L8.30273 3.57865L8.53983 3.2627L7.66778 3.1138Z" fill="#F7F7F7"/>
<path d="M7.66767 3.11472L8.45458 3.11185L8.46069 3.50683L7.66767 3.11472Z" fill="#F7F7F7"/>
<path d="M10.0643 2.56836L9.81836 3.31588L10.1921 3.44374L10.0643 2.56836Z" fill="#F7F7F7"/>
<path d="M10.0642 2.56836L10.3101 3.31588L9.9363 3.44374L10.0642 2.56836Z" fill="#F7F7F7"/>
<path d="M10.8123 3.11276L10.0254 3.1099L10.0193 3.50488L10.8123 3.11276Z" fill="#F7F7F7"/>
<path d="M10.8122 3.11184L10.1773 3.5767L9.94015 3.26075L10.8122 3.11184Z" fill="#F7F7F7"/>
<path d="M10.5271 3.99219L10.2867 3.2429L9.90916 3.35915L10.5271 3.99219Z" fill="#F7F7F7"/>
<path d="M10.5271 3.99219L9.88875 3.53197L10.116 3.20883L10.5271 3.99219Z" fill="#F7F7F7"/>
<path d="M9.60185 3.99219L10.2402 3.53197L10.0129 3.20883L9.60185 3.99219Z" fill="#F7F7F7"/>
<path d="M9.60176 3.99219L9.84221 3.2429L10.2197 3.35915L9.60176 3.99219Z" fill="#F7F7F7"/>
<path d="M9.31622 3.1138L9.95116 3.57865L10.1883 3.2627L9.31622 3.1138Z" fill="#F7F7F7"/>
<path d="M9.3161 3.11472L10.103 3.11185L10.1091 3.50683L9.3161 3.11472Z" fill="#F7F7F7"/>
<path d="M11.7122 2.56836L11.4663 3.31588L11.8401 3.44374L11.7122 2.56836Z" fill="#F7F7F7"/>
<path d="M11.7121 2.56836L11.958 3.31588L11.5842 3.44374L11.7121 2.56836Z" fill="#F7F7F7"/>
<path d="M12.4603 3.11276L11.6733 3.1099L11.6672 3.50488L12.4603 3.11276Z" fill="#F7F7F7"/>
<path d="M12.4601 3.11184L11.8252 3.5767L11.5881 3.26075L12.4601 3.11184Z" fill="#F7F7F7"/>
<path d="M12.1751 3.99219L11.9346 3.2429L11.5571 3.35915L12.1751 3.99219Z" fill="#F7F7F7"/>
<path d="M12.175 3.99219L11.5367 3.53197L11.7639 3.20883L12.175 3.99219Z" fill="#F7F7F7"/>
<path d="M11.2498 3.99219L11.8881 3.53197L11.6609 3.20883L11.2498 3.99219Z" fill="#F7F7F7"/>
<path d="M11.2497 3.99219L11.4902 3.2429L11.8677 3.35915L11.2497 3.99219Z" fill="#F7F7F7"/>
<path d="M10.9642 3.1138L11.5991 3.57865L11.8362 3.2627L10.9642 3.1138Z" fill="#F7F7F7"/>
<path d="M10.9641 3.11472L11.751 3.11185L11.7571 3.50683L10.9641 3.11472Z" fill="#F7F7F7"/>
<path d="M1.82402 4.13672L1.57812 4.88423L1.95188 5.0121L1.82402 4.13672Z" fill="#F7F7F7"/>
<path d="M1.82393 4.13672L2.06982 4.88423L1.69607 5.0121L1.82393 4.13672Z" fill="#F7F7F7"/>
<path d="M2.57208 4.68112L1.78516 4.67826L1.77905 5.07324L2.57208 4.68112Z" fill="#F7F7F7"/>
<path d="M2.57196 4.6802L1.93702 5.14506L1.69992 4.82911L2.57196 4.6802Z" fill="#F7F7F7"/>
<path d="M2.28691 5.56055L2.04646 4.81126L1.66893 4.92751L2.28691 5.56055Z" fill="#F7F7F7"/>
<path d="M2.28682 5.56055L1.64851 5.10033L1.87573 4.77719L2.28682 5.56055Z" fill="#F7F7F7"/>
<path d="M1.36161 5.56055L1.99993 5.10032L1.77271 4.77719L1.36161 5.56055Z" fill="#F7F7F7"/>
<path d="M1.36153 5.56055L1.60198 4.81126L1.97951 4.92751L1.36153 5.56055Z" fill="#F7F7F7"/>
<path d="M1.07599 4.68216L1.71093 5.14701L1.94803 4.83106L1.07599 4.68216Z" fill="#F7F7F7"/>
<path d="M1.07587 4.68308L1.86279 4.68021L1.86889 5.07519L1.07587 4.68308Z" fill="#F7F7F7"/>
<path d="M3.47197 4.13672L3.22607 4.88423L3.59983 5.0121L3.47197 4.13672Z" fill="#F7F7F7"/>
<path d="M3.47188 4.13672L3.71777 4.88423L3.34402 5.0121L3.47188 4.13672Z" fill="#F7F7F7"/>
<path d="M4.22003 4.68112L3.43311 4.67826L3.427 5.07324L4.22003 4.68112Z" fill="#F7F7F7"/>
<path d="M4.21991 4.6802L3.58497 5.14506L3.34786 4.82911L4.21991 4.6802Z" fill="#F7F7F7"/>
<path d="M3.93486 5.56055L3.69441 4.81126L3.31688 4.92751L3.93486 5.56055Z" fill="#F7F7F7"/>
<path d="M3.93477 5.56055L3.29646 5.10033L3.52368 4.77719L3.93477 5.56055Z" fill="#F7F7F7"/>
<path d="M3.00956 5.56055L3.64787 5.10032L3.42066 4.77719L3.00956 5.56055Z" fill="#F7F7F7"/>
<path d="M3.00948 5.56055L3.24993 4.81126L3.62746 4.92751L3.00948 5.56055Z" fill="#F7F7F7"/>
<path d="M2.72393 4.68216L3.35888 5.14701L3.59598 4.83106L2.72393 4.68216Z" fill="#F7F7F7"/>
<path d="M2.72382 4.68308L3.51073 4.68021L3.51684 5.07519L2.72382 4.68308Z" fill="#F7F7F7"/>
<path d="M5.11992 4.13672L4.87402 4.88423L5.24778 5.0121L5.11992 4.13672Z" fill="#F7F7F7"/>
<path d="M5.11983 4.13672L5.36572 4.88423L4.99196 5.0121L5.11983 4.13672Z" fill="#F7F7F7"/>
<path d="M5.86798 4.68112L5.08106 4.67826L5.07495 5.07324L5.86798 4.68112Z" fill="#F7F7F7"/>
<path d="M5.86786 4.6802L5.23292 5.14506L4.99581 4.82911L5.86786 4.6802Z" fill="#F7F7F7"/>
<path d="M5.58281 5.56055L5.34236 4.81126L4.96483 4.92751L5.58281 5.56055Z" fill="#F7F7F7"/>
<path d="M5.58272 5.56055L4.94441 5.10033L5.17163 4.77719L5.58272 5.56055Z" fill="#F7F7F7"/>
<path d="M4.65751 5.56055L5.29582 5.10032L5.0686 4.77719L4.65751 5.56055Z" fill="#F7F7F7"/>
<path d="M4.65743 5.56055L4.89787 4.81126L5.27541 4.92751L4.65743 5.56055Z" fill="#F7F7F7"/>
<path d="M4.37188 4.68216L5.00683 5.14701L5.24393 4.83106L4.37188 4.68216Z" fill="#F7F7F7"/>
<path d="M4.37177 4.68308L5.15868 4.68021L5.16479 5.07519L4.37177 4.68308Z" fill="#F7F7F7"/>
<path d="M6.76787 4.13672L6.52197 4.88423L6.89573 5.0121L6.76787 4.13672Z" fill="#F7F7F7"/>
<path d="M6.76827 4.13672L7.01416 4.88423L6.6404 5.0121L6.76827 4.13672Z" fill="#F7F7F7"/>
<path d="M7.51593 4.68112L6.72901 4.67826L6.7229 5.07324L7.51593 4.68112Z" fill="#F7F7F7"/>
<path d="M7.51581 4.6802L6.88087 5.14506L6.64376 4.82911L7.51581 4.6802Z" fill="#F7F7F7"/>
<path d="M7.23027 5.56055L6.98982 4.81126L6.61229 4.92751L7.23027 5.56055Z" fill="#F7F7F7"/>
<path d="M7.23018 5.56055L6.59187 5.10033L6.81909 4.77719L7.23018 5.56055Z" fill="#F7F7F7"/>
<path d="M6.30546 5.56055L6.94377 5.10032L6.71655 4.77719L6.30546 5.56055Z" fill="#F7F7F7"/>
<path d="M6.30538 5.56055L6.54582 4.81126L6.92336 4.92751L6.30538 5.56055Z" fill="#F7F7F7"/>
<path d="M6.01983 4.68216L6.65478 5.14701L6.89188 4.83106L6.01983 4.68216Z" fill="#F7F7F7"/>
<path d="M6.01972 4.68308L6.80663 4.68021L6.81274 5.07519L6.01972 4.68308Z" fill="#F7F7F7"/>
<path d="M8.41582 4.13672L8.16992 4.88423L8.54368 5.0121L8.41582 4.13672Z" fill="#F7F7F7"/>
<path d="M8.41573 4.13672L8.66162 4.88423L8.28786 5.0121L8.41573 4.13672Z" fill="#F7F7F7"/>
<path d="M9.16388 4.68112L8.37696 4.67826L8.37085 5.07324L9.16388 4.68112Z" fill="#F7F7F7"/>
<path d="M9.16376 4.6802L8.52882 5.14506L8.29171 4.82911L9.16376 4.6802Z" fill="#F7F7F7"/>
<path d="M8.8787 5.56055L8.63826 4.81126L8.26072 4.92751L8.8787 5.56055Z" fill="#F7F7F7"/>
<path d="M8.87862 5.56055L8.24031 5.10033L8.46753 4.77719L8.87862 5.56055Z" fill="#F7F7F7"/>
<path d="M7.95341 5.56055L8.59172 5.10032L8.3645 4.77719L7.95341 5.56055Z" fill="#F7F7F7"/>
<path d="M7.95333 5.56055L8.19377 4.81126L8.57131 4.92751L7.95333 5.56055Z" fill="#F7F7F7"/>
<path d="M7.66778 4.68216L8.30273 5.14701L8.53983 4.83106L7.66778 4.68216Z" fill="#F7F7F7"/>
<path d="M7.66767 4.68308L8.45458 4.68021L8.46069 5.07519L7.66767 4.68308Z" fill="#F7F7F7"/>
<path d="M10.0643 4.13672L9.81836 4.88423L10.1921 5.0121L10.0643 4.13672Z" fill="#F7F7F7"/>
<path d="M10.0642 4.13672L10.3101 4.88423L9.9363 5.0121L10.0642 4.13672Z" fill="#F7F7F7"/>
<path d="M10.8123 4.68112L10.0254 4.67826L10.0193 5.07324L10.8123 4.68112Z" fill="#F7F7F7"/>
<path d="M10.8122 4.6802L10.1773 5.14506L9.94015 4.82911L10.8122 4.6802Z" fill="#F7F7F7"/>
<path d="M10.5271 5.56055L10.2867 4.81126L9.90916 4.92751L10.5271 5.56055Z" fill="#F7F7F7"/>
<path d="M10.5271 5.56055L9.88875 5.10033L10.116 4.77719L10.5271 5.56055Z" fill="#F7F7F7"/>
<path d="M9.60185 5.56055L10.2402 5.10032L10.0129 4.77719L9.60185 5.56055Z" fill="#F7F7F7"/>
<path d="M9.60176 5.56055L9.84221 4.81126L10.2197 4.92751L9.60176 5.56055Z" fill="#F7F7F7"/>
<path d="M9.31622 4.68216L9.95116 5.14701L10.1883 4.83106L9.31622 4.68216Z" fill="#F7F7F7"/>
<path d="M9.3161 4.68308L10.103 4.68021L10.1091 5.07519L9.3161 4.68308Z" fill="#F7F7F7"/>
<path d="M11.7122 4.13672L11.4663 4.88423L11.8401 5.0121L11.7122 4.13672Z" fill="#F7F7F7"/>
<path d="M11.7121 4.13672L11.958 4.88423L11.5842 5.0121L11.7121 4.13672Z" fill="#F7F7F7"/>
<path d="M12.4603 4.68112L11.6733 4.67826L11.6672 5.07324L12.4603 4.68112Z" fill="#F7F7F7"/>
<path d="M12.4601 4.6802L11.8252 5.14506L11.5881 4.82911L12.4601 4.6802Z" fill="#F7F7F7"/>
<path d="M12.1751 5.56055L11.9346 4.81126L11.5571 4.92751L12.1751 5.56055Z" fill="#F7F7F7"/>
<path d="M12.175 5.56055L11.5367 5.10033L11.7639 4.77719L12.175 5.56055Z" fill="#F7F7F7"/>
<path d="M11.2498 5.56055L11.8881 5.10032L11.6609 4.77719L11.2498 5.56055Z" fill="#F7F7F7"/>
<path d="M11.2497 5.56055L11.4902 4.81126L11.8677 4.92751L11.2497 5.56055Z" fill="#F7F7F7"/>
<path d="M10.9642 4.68216L11.5991 5.14701L11.8362 4.83106L10.9642 4.68216Z" fill="#F7F7F7"/>
<path d="M10.9641 4.68308L11.751 4.68021L11.7571 5.07519L10.9641 4.68308Z" fill="#F7F7F7"/>
<path d="M1.82402 5.70508L1.57812 6.45259L1.95188 6.58046L1.82402 5.70508Z" fill="#F7F7F7"/>
<path d="M1.82393 5.70508L2.06982 6.45259L1.69607 6.58046L1.82393 5.70508Z" fill="#F7F7F7"/>
<path d="M2.57208 6.24948L1.78516 6.24662L1.77905 6.6416L2.57208 6.24948Z" fill="#F7F7F7"/>
<path d="M2.57196 6.24856L1.93702 6.71342L1.69992 6.39746L2.57196 6.24856Z" fill="#F7F7F7"/>
<path d="M2.28691 7.12891L2.04646 6.37962L1.66893 6.49587L2.28691 7.12891Z" fill="#F7F7F7"/>
<path d="M2.28682 7.1289L1.64851 6.66868L1.87573 6.34555L2.28682 7.1289Z" fill="#F7F7F7"/>
<path d="M1.36161 7.1289L1.99993 6.66868L1.77271 6.34555L1.36161 7.1289Z" fill="#F7F7F7"/>
<path d="M1.36153 7.12891L1.60198 6.37962L1.97951 6.49587L1.36153 7.12891Z" fill="#F7F7F7"/>
<path d="M1.07599 6.25052L1.71093 6.71537L1.94803 6.39942L1.07599 6.25052Z" fill="#F7F7F7"/>
<path d="M1.07587 6.25144L1.86279 6.24857L1.86889 6.64355L1.07587 6.25144Z" fill="#F7F7F7"/>
<path d="M3.47197 5.70508L3.22607 6.45259L3.59983 6.58046L3.47197 5.70508Z" fill="#F7F7F7"/>
<path d="M3.47188 5.70508L3.71777 6.45259L3.34402 6.58046L3.47188 5.70508Z" fill="#F7F7F7"/>
<path d="M4.22003 6.24948L3.43311 6.24662L3.427 6.6416L4.22003 6.24948Z" fill="#F7F7F7"/>
<path d="M4.21991 6.24856L3.58497 6.71342L3.34786 6.39746L4.21991 6.24856Z" fill="#F7F7F7"/>
<path d="M3.93486 7.12891L3.69441 6.37962L3.31688 6.49587L3.93486 7.12891Z" fill="#F7F7F7"/>
<path d="M3.93477 7.1289L3.29646 6.66868L3.52368 6.34555L3.93477 7.1289Z" fill="#F7F7F7"/>
<path d="M3.00956 7.1289L3.64787 6.66868L3.42066 6.34555L3.00956 7.1289Z" fill="#F7F7F7"/>
<path d="M3.00948 7.12891L3.24993 6.37962L3.62746 6.49587L3.00948 7.12891Z" fill="#F7F7F7"/>
<path d="M2.72393 6.25052L3.35888 6.71537L3.59598 6.39942L2.72393 6.25052Z" fill="#F7F7F7"/>
<path d="M2.72382 6.25144L3.51073 6.24857L3.51684 6.64355L2.72382 6.25144Z" fill="#F7F7F7"/>
<path d="M5.11992 5.70508L4.87402 6.45259L5.24778 6.58046L5.11992 5.70508Z" fill="#F7F7F7"/>
<path d="M5.11983 5.70508L5.36572 6.45259L4.99196 6.58046L5.11983 5.70508Z" fill="#F7F7F7"/>
<path d="M5.86798 6.24948L5.08106 6.24662L5.07495 6.6416L5.86798 6.24948Z" fill="#F7F7F7"/>
<path d="M5.86786 6.24856L5.23292 6.71342L4.99581 6.39746L5.86786 6.24856Z" fill="#F7F7F7"/>
<path d="M5.58281 7.12891L5.34236 6.37962L4.96483 6.49587L5.58281 7.12891Z" fill="#F7F7F7"/>
<path d="M5.58272 7.1289L4.94441 6.66868L5.17163 6.34555L5.58272 7.1289Z" fill="#F7F7F7"/>
<path d="M4.65751 7.1289L5.29582 6.66868L5.0686 6.34555L4.65751 7.1289Z" fill="#F7F7F7"/>
<path d="M4.65743 7.12891L4.89787 6.37962L5.27541 6.49587L4.65743 7.12891Z" fill="#F7F7F7"/>
<path d="M4.37188 6.25052L5.00683 6.71537L5.24393 6.39942L4.37188 6.25052Z" fill="#F7F7F7"/>
<path d="M4.37177 6.25144L5.15868 6.24857L5.16479 6.64355L4.37177 6.25144Z" fill="#F7F7F7"/>
<path d="M6.76787 5.70508L6.52197 6.45259L6.89573 6.58046L6.76787 5.70508Z" fill="#F7F7F7"/>
<path d="M6.76827 5.70508L7.01416 6.45259L6.6404 6.58046L6.76827 5.70508Z" fill="#F7F7F7"/>
<path d="M7.51593 6.24948L6.72901 6.24662L6.7229 6.6416L7.51593 6.24948Z" fill="#F7F7F7"/>
<path d="M7.51581 6.24856L6.88087 6.71342L6.64376 6.39746L7.51581 6.24856Z" fill="#F7F7F7"/>
<path d="M7.23027 7.12891L6.98982 6.37962L6.61229 6.49587L7.23027 7.12891Z" fill="#F7F7F7"/>
<path d="M7.23018 7.1289L6.59187 6.66868L6.81909 6.34555L7.23018 7.1289Z" fill="#F7F7F7"/>
<path d="M6.30546 7.1289L6.94377 6.66868L6.71655 6.34555L6.30546 7.1289Z" fill="#F7F7F7"/>
<path d="M6.30538 7.12891L6.54582 6.37962L6.92336 6.49587L6.30538 7.12891Z" fill="#F7F7F7"/>
<path d="M6.01983 6.25052L6.65478 6.71537L6.89188 6.39942L6.01983 6.25052Z" fill="#F7F7F7"/>
<path d="M6.01972 6.25144L6.80663 6.24857L6.81274 6.64355L6.01972 6.25144Z" fill="#F7F7F7"/>
<path d="M8.41582 5.70508L8.16992 6.45259L8.54368 6.58046L8.41582 5.70508Z" fill="#F7F7F7"/>
<path d="M8.41573 5.70508L8.66162 6.45259L8.28786 6.58046L8.41573 5.70508Z" fill="#F7F7F7"/>
<path d="M9.16388 6.24948L8.37696 6.24662L8.37085 6.6416L9.16388 6.24948Z" fill="#F7F7F7"/>
<path d="M9.16376 6.24856L8.52882 6.71342L8.29171 6.39746L9.16376 6.24856Z" fill="#F7F7F7"/>
<path d="M8.8787 7.12891L8.63826 6.37962L8.26072 6.49587L8.8787 7.12891Z" fill="#F7F7F7"/>
<path d="M8.87862 7.1289L8.24031 6.66868L8.46753 6.34555L8.87862 7.1289Z" fill="#F7F7F7"/>
<path d="M7.95341 7.1289L8.59172 6.66868L8.3645 6.34555L7.95341 7.1289Z" fill="#F7F7F7"/>
<path d="M7.95333 7.12891L8.19377 6.37962L8.57131 6.49587L7.95333 7.12891Z" fill="#F7F7F7"/>
<path d="M7.66778 6.25052L8.30273 6.71537L8.53983 6.39942L7.66778 6.25052Z" fill="#F7F7F7"/>
<path d="M7.66767 6.25144L8.45458 6.24857L8.46069 6.64355L7.66767 6.25144Z" fill="#F7F7F7"/>
<path d="M10.0643 5.70508L9.81836 6.45259L10.1921 6.58046L10.0643 5.70508Z" fill="#F7F7F7"/>
<path d="M10.0642 5.70508L10.3101 6.45259L9.9363 6.58046L10.0642 5.70508Z" fill="#F7F7F7"/>
<path d="M10.8123 6.24948L10.0254 6.24662L10.0193 6.6416L10.8123 6.24948Z" fill="#F7F7F7"/>
<path d="M10.8122 6.24856L10.1773 6.71342L9.94015 6.39746L10.8122 6.24856Z" fill="#F7F7F7"/>
<path d="M10.5271 7.12891L10.2867 6.37962L9.90916 6.49587L10.5271 7.12891Z" fill="#F7F7F7"/>
<path d="M10.5271 7.1289L9.88875 6.66868L10.116 6.34555L10.5271 7.1289Z" fill="#F7F7F7"/>
<path d="M9.60185 7.1289L10.2402 6.66868L10.0129 6.34555L9.60185 7.1289Z" fill="#F7F7F7"/>
<path d="M9.60176 7.12891L9.84221 6.37962L10.2197 6.49587L9.60176 7.12891Z" fill="#F7F7F7"/>
<path d="M9.31622 6.25052L9.95116 6.71537L10.1883 6.39942L9.31622 6.25052Z" fill="#F7F7F7"/>
<path d="M9.3161 6.25144L10.103 6.24857L10.1091 6.64355L9.3161 6.25144Z" fill="#F7F7F7"/>
<path d="M11.7122 5.70508L11.4663 6.45259L11.8401 6.58046L11.7122 5.70508Z" fill="#F7F7F7"/>
<path d="M11.7121 5.70508L11.958 6.45259L11.5842 6.58046L11.7121 5.70508Z" fill="#F7F7F7"/>
<path d="M12.4603 6.24948L11.6733 6.24662L11.6672 6.6416L12.4603 6.24948Z" fill="#F7F7F7"/>
<path d="M12.4601 6.24856L11.8252 6.71342L11.5881 6.39746L12.4601 6.24856Z" fill="#F7F7F7"/>
<path d="M12.1751 7.12891L11.9346 6.37962L11.5571 6.49587L12.1751 7.12891Z" fill="#F7F7F7"/>
<path d="M12.175 7.1289L11.5367 6.66868L11.7639 6.34555L12.175 7.1289Z" fill="#F7F7F7"/>
<path d="M11.2498 7.1289L11.8881 6.66868L11.6609 6.34555L11.2498 7.1289Z" fill="#F7F7F7"/>
<path d="M11.2497 7.12891L11.4902 6.37962L11.8677 6.49587L11.2497 7.12891Z" fill="#F7F7F7"/>
<path d="M10.9642 6.25052L11.5991 6.71537L11.8362 6.39942L10.9642 6.25052Z" fill="#F7F7F7"/>
<path d="M10.9641 6.25144L11.751 6.24857L11.7571 6.64355L10.9641 6.25144Z" fill="#F7F7F7"/>
<path d="M1.82402 7.27344L1.57812 8.02095L1.95188 8.14882L1.82402 7.27344Z" fill="#F7F7F7"/>
<path d="M1.82393 7.27344L2.06982 8.02095L1.69607 8.14882L1.82393 7.27344Z" fill="#F7F7F7"/>
<path d="M2.57208 7.81784L1.78516 7.81498L1.77905 8.20996L2.57208 7.81784Z" fill="#F7F7F7"/>
<path d="M2.57196 7.81692L1.93702 8.28178L1.69992 7.96582L2.57196 7.81692Z" fill="#F7F7F7"/>
<path d="M2.28691 8.69727L2.04646 7.94798L1.66893 8.06423L2.28691 8.69727Z" fill="#F7F7F7"/>
<path d="M2.28682 8.69726L1.64851 8.23704L1.87573 7.91391L2.28682 8.69726Z" fill="#F7F7F7"/>
<path d="M1.36161 8.69726L1.99993 8.23704L1.77271 7.91391L1.36161 8.69726Z" fill="#F7F7F7"/>
<path d="M1.36153 8.69727L1.60198 7.94798L1.97951 8.06423L1.36153 8.69727Z" fill="#F7F7F7"/>
<path d="M1.07599 7.81888L1.71093 8.28373L1.94803 7.96778L1.07599 7.81888Z" fill="#F7F7F7"/>
<path d="M1.07587 7.8198L1.86279 7.81693L1.86889 8.21191L1.07587 7.8198Z" fill="#F7F7F7"/>
<path d="M3.47197 7.27344L3.22607 8.02095L3.59983 8.14882L3.47197 7.27344Z" fill="#F7F7F7"/>
<path d="M3.47188 7.27344L3.71777 8.02095L3.34402 8.14882L3.47188 7.27344Z" fill="#F7F7F7"/>
<path d="M4.22003 7.81784L3.43311 7.81498L3.427 8.20996L4.22003 7.81784Z" fill="#F7F7F7"/>
<path d="M4.21991 7.81692L3.58497 8.28178L3.34786 7.96582L4.21991 7.81692Z" fill="#F7F7F7"/>
<path d="M3.93486 8.69727L3.69441 7.94798L3.31688 8.06423L3.93486 8.69727Z" fill="#F7F7F7"/>
<path d="M3.93477 8.69726L3.29646 8.23704L3.52368 7.91391L3.93477 8.69726Z" fill="#F7F7F7"/>
<path d="M3.00956 8.69726L3.64787 8.23704L3.42066 7.91391L3.00956 8.69726Z" fill="#F7F7F7"/>
<path d="M3.00948 8.69727L3.24993 7.94798L3.62746 8.06423L3.00948 8.69727Z" fill="#F7F7F7"/>
<path d="M2.72393 7.81888L3.35888 8.28373L3.59598 7.96778L2.72393 7.81888Z" fill="#F7F7F7"/>
<path d="M2.72382 7.8198L3.51073 7.81693L3.51684 8.21191L2.72382 7.8198Z" fill="#F7F7F7"/>
<path d="M5.11992 7.27344L4.87402 8.02095L5.24778 8.14882L5.11992 7.27344Z" fill="#F7F7F7"/>
<path d="M5.11983 7.27344L5.36572 8.02095L4.99196 8.14882L5.11983 7.27344Z" fill="#F7F7F7"/>
<path d="M5.86798 7.81784L5.08106 7.81498L5.07495 8.20996L5.86798 7.81784Z" fill="#F7F7F7"/>
<path d="M5.86786 7.81692L5.23292 8.28178L4.99581 7.96582L5.86786 7.81692Z" fill="#F7F7F7"/>
<path d="M5.58281 8.69727L5.34236 7.94798L4.96483 8.06423L5.58281 8.69727Z" fill="#F7F7F7"/>
<path d="M5.58272 8.69726L4.94441 8.23704L5.17163 7.91391L5.58272 8.69726Z" fill="#F7F7F7"/>
<path d="M4.65751 8.69726L5.29582 8.23704L5.0686 7.91391L4.65751 8.69726Z" fill="#F7F7F7"/>
<path d="M4.65743 8.69727L4.89787 7.94798L5.27541 8.06423L4.65743 8.69727Z" fill="#F7F7F7"/>
<path d="M4.37188 7.81888L5.00683 8.28373L5.24393 7.96778L4.37188 7.81888Z" fill="#F7F7F7"/>
<path d="M4.37177 7.8198L5.15868 7.81693L5.16479 8.21191L4.37177 7.8198Z" fill="#F7F7F7"/>
<path d="M6.76787 7.27344L6.52197 8.02095L6.89573 8.14882L6.76787 7.27344Z" fill="#F7F7F7"/>
<path d="M6.76827 7.27344L7.01416 8.02095L6.6404 8.14882L6.76827 7.27344Z" fill="#F7F7F7"/>
<path d="M7.51593 7.81784L6.72901 7.81498L6.7229 8.20996L7.51593 7.81784Z" fill="#F7F7F7"/>
<path d="M7.51581 7.81692L6.88087 8.28178L6.64376 7.96582L7.51581 7.81692Z" fill="#F7F7F7"/>
<path d="M7.23027 8.69727L6.98982 7.94798L6.61229 8.06423L7.23027 8.69727Z" fill="#F7F7F7"/>
<path d="M7.23018 8.69726L6.59187 8.23704L6.81909 7.91391L7.23018 8.69726Z" fill="#F7F7F7"/>
<path d="M6.30546 8.69726L6.94377 8.23704L6.71655 7.91391L6.30546 8.69726Z" fill="#F7F7F7"/>
<path d="M6.30538 8.69727L6.54582 7.94798L6.92336 8.06423L6.30538 8.69727Z" fill="#F7F7F7"/>
<path d="M6.01983 7.81888L6.65478 8.28373L6.89188 7.96778L6.01983 7.81888Z" fill="#F7F7F7"/>
<path d="M6.01972 7.8198L6.80663 7.81693L6.81274 8.21191L6.01972 7.8198Z" fill="#F7F7F7"/>
<path d="M8.41582 7.27344L8.16992 8.02095L8.54368 8.14882L8.41582 7.27344Z" fill="#F7F7F7"/>
<path d="M8.41573 7.27344L8.66162 8.02095L8.28786 8.14882L8.41573 7.27344Z" fill="#F7F7F7"/>
<path d="M9.16388 7.81784L8.37696 7.81498L8.37085 8.20996L9.16388 7.81784Z" fill="#F7F7F7"/>
<path d="M9.16376 7.81692L8.52882 8.28178L8.29171 7.96582L9.16376 7.81692Z" fill="#F7F7F7"/>
<path d="M8.8787 8.69727L8.63826 7.94798L8.26072 8.06423L8.8787 8.69727Z" fill="#F7F7F7"/>
<path d="M8.87862 8.69726L8.24031 8.23704L8.46753 7.91391L8.87862 8.69726Z" fill="#F7F7F7"/>
<path d="M7.95341 8.69726L8.59172 8.23704L8.3645 7.91391L7.95341 8.69726Z" fill="#F7F7F7"/>
<path d="M7.95333 8.69727L8.19377 7.94798L8.57131 8.06423L7.95333 8.69727Z" fill="#F7F7F7"/>
<path d="M7.66778 7.81888L8.30273 8.28373L8.53983 7.96778L7.66778 7.81888Z" fill="#F7F7F7"/>
<path d="M7.66767 7.8198L8.45458 7.81693L8.46069 8.21191L7.66767 7.8198Z" fill="#F7F7F7"/>
<path d="M10.0643 7.27344L9.81836 8.02095L10.1921 8.14882L10.0643 7.27344Z" fill="#F7F7F7"/>
<path d="M10.0642 7.27344L10.3101 8.02095L9.9363 8.14882L10.0642 7.27344Z" fill="#F7F7F7"/>
<path d="M10.8123 7.81784L10.0254 7.81498L10.0193 8.20996L10.8123 7.81784Z" fill="#F7F7F7"/>
<path d="M10.8122 7.81692L10.1773 8.28178L9.94015 7.96582L10.8122 7.81692Z" fill="#F7F7F7"/>
<path d="M10.5271 8.69727L10.2867 7.94798L9.90916 8.06423L10.5271 8.69727Z" fill="#F7F7F7"/>
<path d="M10.5271 8.69726L9.88875 8.23704L10.116 7.91391L10.5271 8.69726Z" fill="#F7F7F7"/>
<path d="M9.60185 8.69726L10.2402 8.23704L10.0129 7.91391L9.60185 8.69726Z" fill="#F7F7F7"/>
<path d="M9.60176 8.69727L9.84221 7.94798L10.2197 8.06423L9.60176 8.69727Z" fill="#F7F7F7"/>
<path d="M9.31622 7.81888L9.95116 8.28373L10.1883 7.96778L9.31622 7.81888Z" fill="#F7F7F7"/>
<path d="M9.3161 7.8198L10.103 7.81693L10.1091 8.21191L9.3161 7.8198Z" fill="#F7F7F7"/>
<path d="M11.7122 7.27344L11.4663 8.02095L11.8401 8.14882L11.7122 7.27344Z" fill="#F7F7F7"/>
<path d="M11.7121 7.27344L11.958 8.02095L11.5842 8.14882L11.7121 7.27344Z" fill="#F7F7F7"/>
<path d="M12.4603 7.81784L11.6733 7.81498L11.6672 8.20996L12.4603 7.81784Z" fill="#F7F7F7"/>
<path d="M12.4601 7.81692L11.8252 8.28178L11.5881 7.96582L12.4601 7.81692Z" fill="#F7F7F7"/>
<path d="M12.1751 8.69727L11.9346 7.94798L11.5571 8.06423L12.1751 8.69727Z" fill="#F7F7F7"/>
<path d="M12.175 8.69726L11.5367 8.23704L11.7639 7.91391L12.175 8.69726Z" fill="#F7F7F7"/>
<path d="M11.2498 8.69726L11.8881 8.23704L11.6609 7.91391L11.2498 8.69726Z" fill="#F7F7F7"/>
<path d="M11.2497 8.69727L11.4902 7.94798L11.8677 8.06423L11.2497 8.69727Z" fill="#F7F7F7"/>
<path d="M10.9642 7.81888L11.5991 8.28373L11.8362 7.96778L10.9642 7.81888Z" fill="#F7F7F7"/>
<path d="M10.9641 7.8198L11.751 7.81693L11.7571 8.21191L10.9641 7.8198Z" fill="#F7F7F7"/>
<path d="M1.82402 8.83984L1.57812 9.58736L1.95188 9.71522L1.82402 8.83984Z" fill="#F7F7F7"/>
<path d="M1.82393 8.83984L2.06982 9.58736L1.69607 9.71522L1.82393 8.83984Z" fill="#F7F7F7"/>
<path d="M2.57208 9.38425L1.78516 9.38139L1.77905 9.77636L2.57208 9.38425Z" fill="#F7F7F7"/>
<path d="M2.57196 9.38333L1.93702 9.84818L1.69992 9.53223L2.57196 9.38333Z" fill="#F7F7F7"/>
<path d="M2.28691 10.2637L2.04646 9.51439L1.66893 9.63063L2.28691 10.2637Z" fill="#F7F7F7"/>
<path d="M2.28682 10.2637L1.64851 9.80345L1.87573 9.48032L2.28682 10.2637Z" fill="#F7F7F7"/>
<path d="M1.36161 10.2637L1.99993 9.80345L1.77271 9.48032L1.36161 10.2637Z" fill="#F7F7F7"/>
<path d="M1.36153 10.2637L1.60198 9.51439L1.97951 9.63063L1.36153 10.2637Z" fill="#F7F7F7"/>
<path d="M1.07599 9.38528L1.71093 9.85014L1.94803 9.53418L1.07599 9.38528Z" fill="#F7F7F7"/>
<path d="M1.07587 9.3862L1.86279 9.38334L1.86889 9.77832L1.07587 9.3862Z" fill="#F7F7F7"/>
<path d="M3.47197 8.83984L3.22607 9.58736L3.59983 9.71522L3.47197 8.83984Z" fill="#F7F7F7"/>
<path d="M3.47188 8.83984L3.71777 9.58736L3.34402 9.71522L3.47188 8.83984Z" fill="#F7F7F7"/>
<path d="M4.22003 9.38425L3.43311 9.38139L3.427 9.77636L4.22003 9.38425Z" fill="#F7F7F7"/>
<path d="M4.21991 9.38333L3.58497 9.84818L3.34786 9.53223L4.21991 9.38333Z" fill="#F7F7F7"/>
<path d="M3.93486 10.2637L3.69441 9.51439L3.31688 9.63063L3.93486 10.2637Z" fill="#F7F7F7"/>
<path d="M3.93477 10.2637L3.29646 9.80345L3.52368 9.48032L3.93477 10.2637Z" fill="#F7F7F7"/>
<path d="M3.00956 10.2637L3.64787 9.80345L3.42066 9.48032L3.00956 10.2637Z" fill="#F7F7F7"/>
<path d="M3.00948 10.2637L3.24993 9.51439L3.62746 9.63063L3.00948 10.2637Z" fill="#F7F7F7"/>
<path d="M2.72393 9.38528L3.35888 9.85014L3.59598 9.53418L2.72393 9.38528Z" fill="#F7F7F7"/>
<path d="M2.72382 9.3862L3.51073 9.38334L3.51684 9.77832L2.72382 9.3862Z" fill="#F7F7F7"/>
<path d="M5.11992 8.83984L4.87402 9.58736L5.24778 9.71522L5.11992 8.83984Z" fill="#F7F7F7"/>
<path d="M5.11983 8.83984L5.36572 9.58736L4.99196 9.71522L5.11983 8.83984Z" fill="#F7F7F7"/>
<path d="M5.86798 9.38425L5.08106 9.38139L5.07495 9.77636L5.86798 9.38425Z" fill="#F7F7F7"/>
<path d="M5.86786 9.38333L5.23292 9.84818L4.99581 9.53223L5.86786 9.38333Z" fill="#F7F7F7"/>
<path d="M5.58281 10.2637L5.34236 9.51439L4.96483 9.63063L5.58281 10.2637Z" fill="#F7F7F7"/>
<path d="M5.58272 10.2637L4.94441 9.80345L5.17163 9.48032L5.58272 10.2637Z" fill="#F7F7F7"/>
<path d="M4.65751 10.2637L5.29582 9.80345L5.0686 9.48032L4.65751 10.2637Z" fill="#F7F7F7"/>
<path d="M4.65743 10.2637L4.89787 9.51439L5.27541 9.63063L4.65743 10.2637Z" fill="#F7F7F7"/>
<path d="M4.37188 9.38528L5.00683 9.85014L5.24393 9.53418L4.37188 9.38528Z" fill="#F7F7F7"/>
<path d="M4.37177 9.3862L5.15868 9.38334L5.16479 9.77832L4.37177 9.3862Z" fill="#F7F7F7"/>
<path d="M6.76787 8.83984L6.52197 9.58736L6.89573 9.71522L6.76787 8.83984Z" fill="#F7F7F7"/>
<path d="M6.76827 8.83984L7.01416 9.58736L6.6404 9.71522L6.76827 8.83984Z" fill="#F7F7F7"/>
<path d="M7.51593 9.38425L6.72901 9.38139L6.7229 9.77636L7.51593 9.38425Z" fill="#F7F7F7"/>
<path d="M7.51581 9.38333L6.88087 9.84818L6.64376 9.53223L7.51581 9.38333Z" fill="#F7F7F7"/>
<path d="M7.23027 10.2637L6.98982 9.51439L6.61229 9.63063L7.23027 10.2637Z" fill="#F7F7F7"/>
<path d="M7.23018 10.2637L6.59187 9.80345L6.81909 9.48032L7.23018 10.2637Z" fill="#F7F7F7"/>
<path d="M6.30546 10.2637L6.94377 9.80345L6.71655 9.48032L6.30546 10.2637Z" fill="#F7F7F7"/>
<path d="M6.30538 10.2637L6.54582 9.51439L6.92336 9.63063L6.30538 10.2637Z" fill="#F7F7F7"/>
<path d="M6.01983 9.38528L6.65478 9.85014L6.89188 9.53418L6.01983 9.38528Z" fill="#F7F7F7"/>
<path d="M6.01972 9.3862L6.80663 9.38334L6.81274 9.77832L6.01972 9.3862Z" fill="#F7F7F7"/>
<path d="M8.41582 8.83984L8.16992 9.58736L8.54368 9.71522L8.41582 8.83984Z" fill="#F7F7F7"/>
<path d="M8.41573 8.83984L8.66162 9.58736L8.28786 9.71522L8.41573 8.83984Z" fill="#F7F7F7"/>
<path d="M9.16388 9.38425L8.37696 9.38139L8.37085 9.77636L9.16388 9.38425Z" fill="#F7F7F7"/>
<path d="M9.16376 9.38333L8.52882 9.84818L8.29171 9.53223L9.16376 9.38333Z" fill="#F7F7F7"/>
<path d="M8.8787 10.2637L8.63826 9.51439L8.26072 9.63063L8.8787 10.2637Z" fill="#F7F7F7"/>
<path d="M8.87862 10.2637L8.24031 9.80345L8.46753 9.48032L8.87862 10.2637Z" fill="#F7F7F7"/>
<path d="M7.95341 10.2637L8.59172 9.80345L8.3645 9.48032L7.95341 10.2637Z" fill="#F7F7F7"/>
<path d="M7.95333 10.2637L8.19377 9.51439L8.57131 9.63063L7.95333 10.2637Z" fill="#F7F7F7"/>
<path d="M7.66778 9.38528L8.30273 9.85014L8.53983 9.53418L7.66778 9.38528Z" fill="#F7F7F7"/>
<path d="M7.66767 9.3862L8.45458 9.38334L8.46069 9.77832L7.66767 9.3862Z" fill="#F7F7F7"/>
<path d="M10.0643 8.83984L9.81836 9.58736L10.1921 9.71522L10.0643 8.83984Z" fill="#F7F7F7"/>
<path d="M10.0642 8.83984L10.3101 9.58736L9.9363 9.71522L10.0642 8.83984Z" fill="#F7F7F7"/>
<path d="M10.8123 9.38425L10.0254 9.38139L10.0193 9.77636L10.8123 9.38425Z" fill="#F7F7F7"/>
<path d="M10.8122 9.38333L10.1773 9.84818L9.94015 9.53223L10.8122 9.38333Z" fill="#F7F7F7"/>
<path d="M10.5271 10.2637L10.2867 9.51439L9.90916 9.63063L10.5271 10.2637Z" fill="#F7F7F7"/>
<path d="M10.5271 10.2637L9.88875 9.80345L10.116 9.48032L10.5271 10.2637Z" fill="#F7F7F7"/>
<path d="M9.60185 10.2637L10.2402 9.80345L10.0129 9.48032L9.60185 10.2637Z" fill="#F7F7F7"/>
<path d="M9.60176 10.2637L9.84221 9.51439L10.2197 9.63063L9.60176 10.2637Z" fill="#F7F7F7"/>
<path d="M9.31622 9.38528L9.95116 9.85014L10.1883 9.53418L9.31622 9.38528Z" fill="#F7F7F7"/>
<path d="M9.3161 9.3862L10.103 9.38334L10.1091 9.77832L9.3161 9.3862Z" fill="#F7F7F7"/>
<path d="M11.7122 8.83984L11.4663 9.58736L11.8401 9.71522L11.7122 8.83984Z" fill="#F7F7F7"/>
<path d="M11.7121 8.83984L11.958 9.58736L11.5842 9.71522L11.7121 8.83984Z" fill="#F7F7F7"/>
<path d="M12.4603 9.38425L11.6733 9.38139L11.6672 9.77636L12.4603 9.38425Z" fill="#F7F7F7"/>
<path d="M12.4601 9.38333L11.8252 9.84818L11.5881 9.53223L12.4601 9.38333Z" fill="#F7F7F7"/>
<path d="M12.1751 10.2637L11.9346 9.51439L11.5571 9.63063L12.1751 10.2637Z" fill="#F7F7F7"/>
<path d="M12.175 10.2637L11.5367 9.80345L11.7639 9.48032L12.175 10.2637Z" fill="#F7F7F7"/>
<path d="M11.2498 10.2637L11.8881 9.80345L11.6609 9.48032L11.2498 10.2637Z" fill="#F7F7F7"/>
<path d="M11.2497 10.2637L11.4902 9.51439L11.8677 9.63063L11.2497 10.2637Z" fill="#F7F7F7"/>
<path d="M10.9642 9.38528L11.5991 9.85014L11.8362 9.53418L10.9642 9.38528Z" fill="#F7F7F7"/>
<path d="M10.9641 9.3862L11.751 9.38334L11.7571 9.77832L10.9641 9.3862Z" fill="#F7F7F7"/>
</g>
<defs>
<clipPath id="clip0_7372_5476">
<rect width="26.6667" height="20" rx="4" fill="white"/>
</clipPath>
</defs>
</svg>
