<svg width="14" height="9" viewBox="0 0 14 9" fill="none" xmlns="http://www.w3.org/2000/svg">
<g clip-path="url(#clip0_102_32)">
<path d="M0 0H14V9H0V0Z" fill="#00853F"/>
<path d="M4.66666 0H14V9H4.66666V0Z" fill="#FDEF42"/>
<path d="M9.33334 0H14V9H9.33334V0Z" fill="#E31B23"/>
<path d="M7 3L6.5193 4.42659L7.25902 4.65835L7 3Z" fill="#00853F"/>
<path d="M7 3L7.4807 4.42659L6.74098 4.65835L7 3Z" fill="#00853F"/>
<path d="M8.44675 3.94226L6.91082 4.16119L7.01717 4.78647L8.44675 3.94226Z" fill="#00853F"/>
<path d="M8.41878 3.98571L7.30122 4.8979L6.76378 4.45638L8.41878 3.98571Z" fill="#00853F"/>
<path d="M7.92066 5.71304L7.42527 4.28674L6.69393 4.52008L7.92066 5.71304Z" fill="#00853F"/>
<path d="M7.91775 5.71263L6.65722 4.83303L7.1033 4.22508L7.91775 5.71263Z" fill="#00853F"/>
<path d="M6.08227 5.71263L7.34279 4.83303L6.89672 4.22508L6.08227 5.71263Z" fill="#00853F"/>
<path d="M6.07935 5.71304L6.57473 4.28674L7.30608 4.52008L6.07935 5.71304Z" fill="#00853F"/>
<path d="M5.58122 3.98571L6.69879 4.8979L7.23623 4.45638L5.58122 3.98571Z" fill="#00853F"/>
<path d="M5.55325 3.94226L7.08918 4.16119L6.98283 4.78647L5.55325 3.94226Z" fill="#00853F"/>
</g>
<defs>
<clipPath id="clip0_102_32">
<rect width="14" height="9" fill="white"/>
</clipPath>
</defs>
</svg>
