<svg width="360" height="362" viewBox="0 0 360 362" fill="none" xmlns="http://www.w3.org/2000/svg">
<g opacity="0.6">
<path d="M77.6699 103.036C73.3784 103.022 73.294 101.933 69.522 100.701C65.0009 99.2251 63.5179 99.5325 59.3695 101.013C58.2608 101.409 55.0466 101.086 54.7238 102.944C54.4003 104.808 57.728 105.43 57.8024 106.786C57.9745 109.919 54.1661 107.438 53.0881 108.815C51.3543 111.029 55.6689 111.547 56.8882 111.457C56.9144 111.861 56.9185 112.206 56.8813 112.607C54.4124 113.279 52.2662 113.666 53.1812 116.73C53.7079 118.493 55.8789 121.725 57.8112 120.205C58.9456 124.155 53.2649 122.333 52.5947 125.132C54.5121 124.942 58.0814 122.369 59.8209 121.493C62.4267 120.18 63.4837 118.367 65.0634 116.067C65.5975 116.625 65.9248 118.681 66.6218 118.943C68.4271 119.623 68.8205 117.103 69.9938 116.638C73.156 115.386 72.7651 118.191 75.0867 119.477C76.0571 120.015 77.344 119.401 78.2235 119.853C79.5912 120.556 79.3922 121.209 80.3375 122.37C81.4921 123.791 84.0342 125.388 82.9418 127.377C87.632 127.945 84.0901 131.094 83.8505 133.316C83.6957 134.75 84.3378 136.582 84.2307 138.08C84.0846 140.127 83.8357 140.61 84.7107 142.453C85.9901 145.148 87.3972 147.049 88.2398 149.887C89.0407 152.585 90.4029 155.931 92.5574 157.702C93.0749 154.923 90.2933 153.37 90.7807 150.257C91.8361 150.557 93.0602 154.315 93.6206 155.467C94.4054 157.078 94.7827 159.719 96.4369 161.169C98.269 162.775 100.912 162.103 102.87 163.109C103.884 163.63 104.262 164.726 105.208 165.159C106.256 165.639 107.971 165.135 108.823 165.942C110.575 167.601 109.101 170.059 112.624 170.573C115.192 170.948 117.503 168.663 116.092 172.757C115.347 174.92 113.04 175.686 112.642 177.756C112.266 179.712 113.159 183.149 113.901 184.631C115.223 187.27 117.325 191.08 120.097 191.267C121.049 193.626 120.034 195.898 119.822 198.081C119.59 200.482 120.505 203.563 119.768 205.85C118.848 208.703 117.796 208.878 118.664 212.119C118.984 213.31 119.679 213.006 119.61 214.455C119.566 215.389 118.221 216.418 118.259 217.828C118.323 220.219 121.819 225.719 122.203 223.245C122.745 219.754 123.628 216.988 123.926 215.822C124.147 214.952 124.081 212.527 124.61 211.318C124.822 210.835 126.104 209.424 126.481 209.121C128.625 207.397 129.04 207.433 130.495 204.982C130.657 204.709 131.798 203.595 131.796 203.259C134.837 201.319 136.146 196.117 138.685 194.1C141.305 192.017 141.9 193.382 142.752 189.648C143.311 187.197 143.204 184.675 145.171 183.068C146.669 181.844 150.724 181.122 148.09 177.999C146.719 176.373 143.82 177.642 141.745 176.503C140.902 176.041 140.456 174.996 139.554 174.627C138.538 174.21 136.652 174.835 135.784 174.328C134.543 173.602 135.114 172.76 134.547 171.809C133.331 169.77 134.868 170.766 132.67 169.619C131.409 168.961 130.86 169.788 129.611 168.61C128.848 167.89 129.007 166.085 127.991 165.458C126.527 164.555 123.01 165.634 121.403 165.863C119.973 166.068 119.517 165.837 118.336 166.559C117.278 167.205 118.579 168.335 116.694 168.694C116.258 168.776 115.036 167.434 114.206 167.429C113.031 167.422 112.02 167.954 111.139 168.631C110.219 166.854 112.014 164.61 111.099 163.267C109.55 160.997 108.293 163.8 108.503 160.161C108.614 158.235 110.506 156.715 107.228 158.283C106.09 158.827 104.902 162.25 102.681 160.159C99.7428 157.393 103.778 152.435 106.139 151.232C107.629 150.473 110.36 149.512 112.021 150.453C113.582 151.337 113.039 154.125 115.41 153.611C115.504 151.765 114.852 148.796 115.52 147.079C116.437 144.724 118.789 145.298 119.925 143.659C120.583 142.709 119.992 141.332 120.466 140.515C121.157 139.325 121.528 139.764 122.342 138.949C123.198 138.095 123.538 138.691 124.219 137.384C124.623 136.609 124.535 134.895 124.58 133.997C126.398 133.36 128.47 133.214 128.664 135.459C131.401 134.469 129.815 131.051 128.962 129.327C130.959 126.363 133.703 128.346 133.343 131.385C135.212 132.056 138.963 132.323 138.248 129.303C132.664 127.243 137.924 126.295 136.042 122.364C135.484 121.201 133.574 120.822 132.898 119.631C132.181 118.37 132.405 115.8 131.99 114.275C130.465 114.529 129.829 116.055 128.022 115.745C127.827 113.024 124.43 110.349 122.099 113.045C119.772 115.736 122.469 119.621 122.92 121.997C120.011 122.194 120.572 125.572 118.009 124.82C117.938 123.41 117.985 121.943 117.914 120.533C114.111 120.328 109.964 119.7 111.076 114.54C111.673 111.77 112.759 112.942 114.839 112.043C116.82 111.187 116.542 110.134 118.022 108.968C119.693 107.652 120.953 108.971 121.394 106.074C121.719 103.94 121.081 103.396 119.127 103.181C117.2 102.968 118.095 105.172 115.771 102.96C114.424 101.68 115.204 99.9509 112.721 99.5652C112.013 100.997 112.335 102.934 112.594 104.479C110.612 105.114 104 102.186 103.244 103.619C102.507 107.927 99.6523 104.498 97.6882 103.501C95.3637 102.321 92.9222 102.395 90.4226 102.021C87.7584 101.621 86.3975 101.853 83.78 102.265C81.3261 102.651 81.1263 102.013 78.9928 102.584L77.6699 103.036Z" fill="#989ECC"/>
<path d="M143.623 86.0618C142.055 87.0356 140.583 85.098 138.679 85.4991C138.312 85.5764 137.852 86.7828 137.119 87.0691C136.354 87.3681 135.181 87.4364 134.281 87.3608C134.549 88.0244 134.476 89.1453 134.811 89.7709C134.104 89.6129 133.113 90.012 132.403 89.8643C132.315 92.5517 133.007 92.9541 134.86 93.8853C136.929 94.9257 137.825 94.0211 138.614 96.703C138.898 97.6685 138.313 98.8769 138.67 99.8303C138.962 100.611 140.176 101.059 140.414 101.787C141.064 103.778 140.208 105.016 139.867 107.029C139.452 109.483 140.495 118.712 145.202 115.744C146.838 114.712 145.47 111.574 146.508 110.228C147.762 108.604 150.167 109.273 152.017 109.165C153.073 105.772 156.195 106.822 159.215 106.669C159.614 105.768 159.734 104.604 159.535 103.634C159.18 103.55 158.739 103.544 158.379 103.54C158.585 101.778 163.407 100.862 160.334 97.9546C163.71 97.1484 164.458 95.7232 164.59 92.6495C164.686 90.4103 163.771 91.3741 165.199 89.5038C166.21 88.1805 168.426 88.9817 167.672 86.4218C166.123 86.328 163.89 87.2932 162.383 86.7023C160.505 85.9663 160.644 83.8875 159.26 82.9953C156.636 81.305 152.235 84.168 149.303 84.2309C149.459 87.2383 147.585 86.7361 146.139 86.1699L143.623 86.0618Z" fill="#989ECC"/>
<path d="M281.319 182.137C279.711 182.541 281.415 179.041 280.332 178.114C276.665 177.489 276.889 180.086 274.129 181.275C273.108 181.714 270.677 181.009 270.375 181.175C268.529 182.193 269.874 183.69 269.113 185.265C267.654 188.285 264.491 186.535 264.35 191.143C264.259 194.123 266.269 196.506 265.399 199.591C270.433 201.922 273.155 192.581 278.424 197.55C279.148 198.231 279.106 199.616 279.834 200.224C280.862 201.083 282.245 200.684 283.135 201.288C285.597 202.961 284.711 204.993 288.142 203.018C290.941 201.408 295.188 195.801 295.402 192.777C295.567 190.446 294.077 188.657 292.601 187.075C290.525 184.847 289.344 183.394 287.978 180.572C286.664 177.857 286.344 178.019 285.828 179.656C285.101 181.36 285.86 180.904 285.334 182.708C283.035 184.059 283.136 180.763 282.119 181.702L281.319 182.137Z" fill="#989ECC"/>
<path d="M307.293 103.587C306.827 100.838 303.759 101.919 301.348 101.709C298.273 101.44 297.623 100.093 295.166 98.8149C292.158 97.2495 291.499 99.4185 288.501 99.8221C285.995 100.159 285.24 98.3478 282.953 97.2498C279.974 95.8202 279.477 97.3106 276.625 97.9605C273.686 98.6298 271.567 97.2043 269.177 95.9897C266.338 94.5472 265.787 95.2004 262.612 95.8395C261.192 96.1255 256.621 96.5862 255.33 96.098C254.512 95.7886 254.083 94.7208 254.047 93.9381C250.24 92.5797 246.342 94.564 242.427 94.3622C240.966 93.1104 240.028 93.5277 237.837 93.5277C235.735 93.5277 233.664 91.3373 231.787 92.7975C228.293 95.5145 222.878 92.0173 224.316 98.2184C222.428 98.498 217.763 98.3035 217.11 96.4428C213.182 95.8649 215.765 100.848 214.355 101.958C212.944 103.069 207.877 102.086 205.899 102.883C203.525 103.839 195.58 111.915 194.976 108.359C201.479 106.286 191.922 100.912 188.445 101.466C186.822 101.725 183.565 103.086 182.359 104.212C180.485 105.963 180.686 108.756 179.375 110.86C178.183 112.773 175.926 113.739 176.482 116.417C176.992 118.873 177.005 117.059 178.36 118.295C178.688 118.595 179.268 116.422 179.733 116.895C180.32 117.491 180.606 119.257 181.611 119.502C183.124 119.872 182.55 118.032 182.654 116.999C182.939 114.15 183.539 114.938 184.931 112.661C185.728 111.359 185.577 110.373 187.355 109.892C188.346 111.526 187.03 113.421 187.429 115.102C187.593 115.793 188.784 115.473 189.007 116.73C189.221 117.933 188.713 118.891 187.975 119.797C184.925 123.542 181.507 119.612 178.414 120.54C176.981 123.119 176.13 125.87 173.665 127.614C171.919 128.85 170.528 127.819 171.399 130.515C171.939 132.188 174.337 131.318 173.611 133.889C171.719 135.265 168.735 133.973 167.47 134.928C166.233 135.863 167.095 139.935 168.338 140.452C171.364 141.71 171.287 137.263 172.718 136.211C174.51 134.895 178.363 137.161 177.781 133.676C182.374 132.539 181.078 138.736 184.259 138.901C184.394 135.783 183.796 135.047 182.147 132.683C185.262 133.272 186.826 137.81 188.704 139.062C190.425 139.218 190.692 137.122 190.612 135.554C194.647 135.942 192.855 130.643 197.222 131.667C200.199 132.365 202.963 136.352 198.076 136.148C196.62 136.087 195.924 134.501 194.234 135.415C193.124 136.016 192.185 138.547 193.046 139.52C194.74 141.437 200.777 138.326 199.273 143.589C195.74 144.715 193.198 143.961 189.625 143.95C187.572 143.944 182.355 145.547 182.373 141.507C181.368 140.952 180.348 141.027 179.612 141.766L180.237 141.453C176.173 145.196 169.389 139.532 167.485 145.294C167.331 145.761 166.976 148.098 166.788 148.345C165.821 149.612 165.196 148.833 164.035 149.66C162.532 150.731 161.364 152.979 161.079 154.841C160.82 156.532 160.825 160.598 161.524 162.35C162.268 164.215 164.922 165.73 166.084 167.428C167.675 169.754 167.504 170.811 171.162 169.853C173.62 169.209 175.259 167.511 177.818 168.915C179.842 170.024 179.551 172.08 182.747 170.9C183.902 173.226 181.573 175.2 182.811 177.667C183.425 178.893 184.635 179.073 184.93 180.572C185.215 182.017 184.347 182.986 184.306 184.327C184.206 187.527 185.831 188.446 187.052 190.968C188.097 193.125 187.345 195.627 188.765 197.705C191.08 201.093 196.818 198.084 199.397 195.922C200.826 194.722 202.018 191.737 202.473 190.358C202.769 189.458 202.738 188.048 203.099 187.127C203.653 185.712 203.851 186.283 205.037 185.029C209.408 180.411 200.936 178.239 206.211 173.765C208.555 171.777 210.377 170.772 210.905 167.427C211.458 163.924 211.157 162.212 207.518 162.365C204.975 157.744 218.16 156.915 216.806 151.2C215.197 150.89 207.205 148.328 211.533 146.461C214.161 145.327 219.198 148.764 221.547 149.832C224.18 151.029 224.309 152.495 226.233 154.299C227.486 155.474 229.002 155.262 230.013 156.77C230.853 158.023 230.737 160.221 231.622 161.726C232.414 163.074 234.095 165.073 235.409 166.065C236.333 164.01 235.444 161.285 236.318 159.353C237.393 156.98 241.183 157.753 240.684 154.644C245.81 153.262 246.562 162.586 249.666 162.998C249.696 161.901 249.728 160.747 249.759 159.651C252.603 158.887 252.439 163.216 254.97 162.044C257.441 160.899 255.066 157.26 254.641 155.927C252.587 149.476 261.218 153.78 263.254 148.651C264.17 146.342 263.573 143 262.45 141.21C261.562 139.794 258.421 138.231 258.46 136.462C258.534 133.069 262.28 134.512 263.481 136.135C264.717 137.805 264.101 141.219 266.871 141.085C267.714 138.94 265.777 137.117 266.284 135.508C266.988 133.274 270.464 133.15 271.538 130.804C272.411 128.899 271.84 126.706 272.002 124.799C272.24 121.996 272.816 122.007 270.055 120.798C268.121 119.951 265.56 120.216 267.55 117.036C268.67 115.246 271.435 114.994 273.183 114.304C275.678 113.319 276.822 113.185 279.38 113.367C280.685 113.46 280.177 114.525 281.717 113.677C282.655 113.16 283.302 110.86 283.565 109.893C286.371 109.192 286.693 113.853 285.936 115.416C284.694 117.98 283.356 117.767 283.197 121.112C283.076 123.647 283.988 127.199 285.63 123.302C286.088 122.215 285.197 120.566 285.764 119.54C286.589 118.049 288.367 118.618 289.455 117.762C291.673 116.016 291.245 113.836 294.394 112.907C297.224 112.071 299.464 113.37 300.103 109.533C300.309 108.298 298.698 107.221 300.02 106.312C301.232 105.478 301.83 106.991 302.843 107.342C303.991 107.741 303.988 108.756 305.501 107.991C306.253 107.609 307.423 104.355 307.293 103.587Z" fill="#989ECC"/>
</g>
<path d="M266.992 117.73C260.829 115.54 249.284 115.969 236.687 119.308C224.091 122.646 213.849 127.992 209.579 132.947L206.245 133.831L207.509 138.599L207.561 138.585C209.142 144.548 224.745 145.588 242.412 140.905C260.078 136.223 273.118 127.592 271.537 121.628L270.273 116.86L266.992 117.73Z" fill="#F9A65D"/>
<path d="M270.287 116.911C271.867 122.875 258.827 131.506 241.161 136.189C223.495 140.871 207.892 139.832 206.311 133.868C204.73 127.904 217.77 119.273 235.437 114.591C253.103 109.908 268.706 110.947 270.287 116.911Z" fill="#FEC463"/>
<path d="M264.873 118.346C266.186 123.301 255.354 130.471 240.676 134.36C226 138.251 213.037 137.387 211.724 132.433C210.411 127.478 221.244 120.308 235.921 116.418C250.597 112.528 263.56 113.391 264.873 118.346Z" fill="#FFD686"/>
<path d="M218.597 139.069C232.299 129.987 245.996 120.905 259.75 111.827C258.536 111.719 257.242 111.662 255.876 111.66C242.194 120.681 228.546 129.705 214.932 138.731C216.067 138.897 217.293 139.009 218.597 139.069Z" fill="#FFDA67"/>
<path d="M264.893 112.744C263.749 112.405 262.455 112.143 261.023 111.963C247.316 121.01 233.665 130.061 220.01 139.112C221.698 139.139 223.505 139.078 225.399 138.936C238.584 130.206 251.757 121.476 264.893 112.744Z" fill="#FFDA67"/>
<path d="M264.873 118.346C266.186 123.301 255.354 130.471 240.676 134.36C226 138.251 213.037 137.387 211.724 132.433C210.411 127.478 221.244 120.308 235.921 116.418C250.597 112.528 263.56 113.391 264.873 118.346Z" fill="#FFD686"/>
<path d="M250.806 114.03C246.392 114.217 241.272 115 235.921 116.418C221.244 120.308 210.411 127.479 211.724 132.433C212.202 134.234 214.224 135.492 217.304 136.18C228.449 128.795 239.616 121.412 250.806 114.03Z" fill="#FFD686"/>
<path d="M230.841 136.309C233.944 135.911 237.263 135.265 240.676 134.361C255.353 130.471 266.186 123.301 264.873 118.346C264.565 117.184 263.612 116.25 262.151 115.546C251.731 122.469 241.292 129.39 230.841 136.309Z" fill="#FFD686"/>
<path d="M213.034 132.738C211.721 127.783 222.554 120.613 237.231 116.723C246.276 114.326 254.665 113.736 260.082 114.795C254.772 113.345 245.732 113.818 235.921 116.418C221.244 120.308 210.411 127.478 211.724 132.433C212.228 134.334 214.451 135.63 217.825 136.289C215.191 135.571 213.469 134.38 213.034 132.738Z" fill="#FAA955"/>
<path d="M235.719 119.331L239.341 118.37L239.609 119.379C242.558 118.698 245.189 118.403 247.502 118.494L243.954 121.232C242.389 121.205 241.099 121.271 240.082 121.43L240.647 123.56C246.341 122.66 249.392 122.981 249.801 124.524C250.007 125.3 249.474 126.14 248.203 127.045C246.933 127.949 244.945 128.849 242.239 129.745L242.579 131.027L239.022 131.97L238.686 130.703L238.097 130.859C236.758 131.213 235.16 131.5 233.303 131.719C231.446 131.938 229.97 131.979 228.876 131.844L232.267 129.219C234.031 129.355 236.002 129.212 238.178 128.787L237.522 126.312C234.814 126.788 232.692 126.93 231.154 126.738C229.616 126.546 228.75 126.082 228.554 125.345C228.347 124.565 228.846 123.727 230.049 122.832C231.252 121.938 233.23 121.102 235.982 120.325L235.719 119.331ZM236.946 124.138L236.466 122.326C235.155 122.842 234.556 123.313 234.669 123.741C234.791 124.202 235.55 124.335 236.946 124.138ZM241.238 125.792L241.746 127.707C243.21 127.183 243.876 126.667 243.742 126.161C243.619 125.7 242.785 125.576 241.238 125.792Z" fill="#FEC463"/>
<path d="M234.844 119.562L238.467 118.603L238.734 119.612C241.683 118.93 244.314 118.635 246.627 118.726L243.079 121.464C241.514 121.437 240.224 121.503 239.207 121.662L239.772 123.791C245.466 122.892 248.517 123.213 248.926 124.755C249.131 125.532 248.599 126.372 247.328 127.276C246.057 128.181 244.07 129.081 241.364 129.977L241.704 131.259L238.146 132.201L237.811 130.934L237.221 131.09C235.883 131.445 234.285 131.732 232.428 131.951C230.571 132.17 229.095 132.211 228 132.076L231.392 129.45C233.156 129.587 235.127 129.443 237.303 129.019L236.647 126.544C233.939 127.019 231.816 127.161 230.279 126.97C228.741 126.778 227.875 126.314 227.679 125.577C227.472 124.796 227.97 123.959 229.174 123.064C230.377 122.17 232.355 121.334 235.107 120.557L234.844 119.562ZM236.071 124.37L235.591 122.558C234.28 123.074 233.681 123.545 233.794 123.972C233.916 124.434 234.676 124.567 236.071 124.37ZM240.363 126.024L240.871 127.939C242.335 127.414 243.001 126.899 242.867 126.393C242.744 125.931 241.91 125.808 240.363 126.024Z" fill="#F9A65D"/>
<path d="M235.719 119.331L239.341 118.37L239.609 119.379C242.558 118.698 245.189 118.403 247.502 118.494L243.954 121.232C242.389 121.205 241.099 121.271 240.082 121.43L240.647 123.56C246.341 122.66 249.392 122.981 249.801 124.524C250.007 125.3 249.474 126.14 248.203 127.045C246.933 127.949 244.945 128.849 242.239 129.745L242.579 131.027L239.022 131.97L238.686 130.703L238.097 130.859C236.758 131.213 235.16 131.5 233.303 131.719C231.446 131.938 229.97 131.979 228.876 131.844L232.267 129.219C234.031 129.355 236.002 129.212 238.178 128.787L237.522 126.312C234.814 126.788 232.692 126.93 231.154 126.738C229.616 126.546 228.75 126.082 228.554 125.345C228.347 124.565 228.846 123.727 230.049 122.832C231.252 121.938 233.23 121.102 235.982 120.325L235.719 119.331ZM236.946 124.138L236.466 122.326C235.155 122.842 234.556 123.313 234.669 123.741C234.791 124.202 235.55 124.335 236.946 124.138ZM241.238 125.792L241.746 127.707C243.21 127.183 243.876 126.667 243.742 126.161C243.619 125.7 242.785 125.576 241.238 125.792Z" fill="#FEC463"/>
<path opacity="0.4" d="M222.081 136.76C233.46 129.217 244.84 121.675 256.254 114.135C255.046 114.022 253.74 113.972 252.35 113.986C241.025 121.457 229.723 128.93 218.444 136.404C219.55 136.587 220.77 136.705 222.081 136.76Z" fill="#FFF3CE"/>
<path opacity="0.4" d="M261.248 115.166C260.19 114.774 258.937 114.476 257.514 114.279C246.155 121.782 234.831 129.288 223.507 136.794C225.23 136.804 227.093 136.71 229.056 136.513C239.801 129.399 250.535 122.283 261.248 115.166Z" fill="#FFF3CE"/>
<path d="M137.966 126.812C133.521 122.015 123.092 117.043 110.383 114.162C97.6745 111.28 86.1217 111.269 80.0409 113.68L76.6778 112.917L75.5869 117.728L75.6399 117.74C74.2757 123.757 87.6189 131.911 105.443 135.952C123.267 139.993 138.822 138.391 140.186 132.374L141.277 127.563L137.966 126.812Z" fill="#F9A65D"/>
<path d="M141.265 127.615C139.901 133.632 124.346 135.234 106.522 131.193C88.6981 127.152 75.3548 118.998 76.719 112.981C78.0829 106.964 93.6382 105.361 111.462 109.403C129.286 113.444 142.63 121.598 141.265 127.615Z" fill="#FEC463"/>
<path d="M135.804 126.377C134.67 131.376 121.747 132.707 106.94 129.349C92.1322 125.992 81.0468 119.218 82.1803 114.219C83.3138 109.221 96.2365 107.889 111.044 111.247C125.852 114.604 136.937 121.378 135.804 126.377Z" fill="#FFD686"/>
<path d="M85.194 123.285C101.545 121.59 117.892 119.893 134.287 118.225C133.261 117.567 132.141 116.917 130.932 116.282C114.627 117.933 98.3509 119.601 82.103 121.287C83.0313 121.96 84.0668 122.628 85.194 123.285Z" fill="#FFDA67"/>
<path d="M138.419 121.422C137.562 120.591 136.537 119.759 135.351 118.935C119.013 120.598 102.722 122.289 86.4263 123.978C87.9101 124.784 89.5388 125.568 91.2833 126.321C107.013 124.698 122.731 123.069 138.419 121.422Z" fill="#FFDA67"/>
<path d="M135.804 126.377C134.67 131.376 121.747 132.707 106.94 129.349C92.1322 125.992 81.0468 119.218 82.1803 114.219C83.3138 109.221 96.2365 107.889 111.044 111.247C125.852 114.604 136.937 121.378 135.804 126.377Z" fill="#FFD686"/>
<path d="M125.34 116.031C121.343 114.15 116.443 112.471 111.044 111.247C96.2366 107.889 83.314 109.22 82.1805 114.219C81.7685 116.037 82.9776 118.089 85.3879 120.126C98.6861 118.749 112.004 117.384 125.34 116.031Z" fill="#FFD686"/>
<path d="M97.3228 126.517C100.257 127.602 103.496 128.568 106.94 129.349C121.748 132.707 134.671 131.375 135.804 126.376C136.07 125.204 135.659 123.934 134.69 122.634C122.249 123.937 109.79 125.229 97.3228 126.517Z" fill="#FFD686"/>
<path d="M83.2 115.097C84.3334 110.098 97.256 108.767 112.064 112.124C121.19 114.193 128.896 117.56 133.206 121.009C129.172 117.262 120.943 113.491 111.044 111.247C96.2367 107.889 83.314 109.22 82.1805 114.219C81.7458 116.138 83.1151 118.317 85.7979 120.464C83.7977 118.606 82.8243 116.754 83.2 115.097Z" fill="#FAA955"/>
<path d="M109.514 113.733L113.169 114.561L112.938 115.58C115.867 116.343 118.335 117.301 120.342 118.454L115.929 119.236C114.556 118.486 113.382 117.947 112.407 117.617L111.92 119.765C117.382 121.607 119.937 123.307 119.584 124.863C119.407 125.646 118.545 126.143 117 126.356C115.455 126.568 113.276 126.444 110.464 125.984L110.171 127.277L106.582 126.463L106.872 125.184L106.277 125.05C104.927 124.744 103.378 124.257 101.631 123.59C99.8843 122.923 98.5571 122.276 97.6499 121.648L101.872 120.894C103.372 121.833 105.185 122.619 107.31 123.252L107.876 120.755C105.256 119.921 103.309 119.063 102.036 118.18C100.762 117.298 100.21 116.484 100.378 115.741C100.557 114.953 101.386 114.442 102.867 114.207C104.348 113.973 106.488 114.149 109.287 114.737L109.514 113.733ZM108.373 118.562L108.788 116.733C107.387 116.583 106.637 116.723 106.539 117.154C106.434 117.619 107.045 118.089 108.373 118.562ZM111.409 122.017L110.971 123.949C112.512 124.163 113.341 124.015 113.456 123.505C113.562 123.039 112.879 122.543 111.409 122.017Z" fill="#FEC463"/>
<path d="M108.632 113.533L112.287 114.362L112.056 115.38C114.985 116.143 117.453 117.101 119.46 118.254L115.047 119.035C113.673 118.286 112.499 117.747 111.525 117.416L111.038 119.564C116.5 121.407 119.054 123.106 118.702 124.663C118.524 125.445 117.663 125.943 116.118 126.155C114.573 126.368 112.394 126.244 109.582 125.783L109.288 127.077L105.699 126.263L105.989 124.985L105.395 124.85C104.044 124.544 102.496 124.057 100.749 123.39C99.0018 122.723 97.6748 122.075 96.7676 121.448L100.99 120.694C102.49 121.633 104.302 122.419 106.427 123.052L106.994 120.554C104.374 119.721 102.427 118.862 101.153 117.98C99.8797 117.097 99.3273 116.284 99.4957 115.541C99.6744 114.753 100.504 114.242 101.985 114.007C103.465 113.772 105.605 113.948 108.405 114.536L108.632 113.533ZM107.491 118.362L107.905 116.533C106.504 116.383 105.754 116.522 105.657 116.953C105.552 117.419 106.163 117.889 107.491 118.362ZM110.527 121.817L110.089 123.749C111.63 123.963 112.458 123.815 112.574 123.304C112.68 122.839 111.997 122.343 110.527 121.817Z" fill="#F9A65D"/>
<path d="M109.514 113.733L113.169 114.561L112.938 115.58C115.867 116.343 118.335 117.301 120.342 118.454L115.929 119.236C114.556 118.486 113.382 117.947 112.407 117.617L111.92 119.765C117.382 121.607 119.937 123.307 119.584 124.863C119.407 125.646 118.545 126.143 117 126.356C115.455 126.568 113.276 126.444 110.464 125.984L110.171 127.277L106.582 126.463L106.872 125.184L106.277 125.05C104.927 124.744 103.378 124.257 101.631 123.59C99.8843 122.923 98.5571 122.276 97.6499 121.648L101.872 120.894C103.372 121.833 105.185 122.619 107.31 123.252L107.876 120.755C105.256 119.921 103.309 119.063 102.036 118.18C100.762 117.298 100.21 116.484 100.378 115.741C100.557 114.953 101.386 114.442 102.867 114.207C104.348 113.973 106.488 114.149 109.287 114.737L109.514 113.733ZM108.373 118.562L108.788 116.733C107.387 116.583 106.637 116.723 106.539 117.154C106.434 117.619 107.045 118.089 108.373 118.562ZM111.409 122.017L110.971 123.949C112.512 124.163 113.341 124.015 113.456 123.505C113.562 123.039 112.879 122.543 111.409 122.017Z" fill="#FEC463"/>
<path opacity="0.4" d="M89.3505 122.854C102.93 121.446 116.51 120.039 130.119 118.649C129.1 117.989 127.967 117.339 126.728 116.708C113.23 118.077 99.7518 119.459 86.293 120.852C87.1883 121.528 88.2138 122.198 89.3505 122.854Z" fill="#FFF3CE"/>
<path opacity="0.4" d="M134.065 121.878C133.309 121.04 132.337 120.196 131.168 119.361C117.625 120.744 104.111 122.144 90.5986 123.545C92.1202 124.354 93.8142 125.134 95.6448 125.87C108.464 124.546 121.274 123.218 134.065 121.878Z" fill="#FFF3CE"/>
<path d="M202.207 84.2448C198.395 78.9299 188.668 72.6958 176.418 68.2516C164.168 63.807 152.707 62.3541 146.374 63.9878L143.131 62.8113L141.449 67.4487L141.5 67.4668C139.395 73.2666 151.617 83.0221 168.798 89.2554C185.978 95.4887 201.612 95.8401 203.716 90.0398L205.398 85.4028L202.207 84.2448Z" fill="#F9A65D"/>
<path d="M205.38 85.4516C203.276 91.2519 187.642 90.9007 170.462 84.6672C153.281 78.4339 141.06 68.6789 143.164 62.8786C145.268 57.0789 160.902 57.43 178.082 63.6634C195.263 69.8968 207.485 79.6518 205.38 85.4516Z" fill="#FEC463"/>
<path d="M200.116 83.5427C198.368 88.3608 185.38 88.0693 171.107 82.8908C156.834 77.7123 146.68 69.6083 148.429 64.7897C150.177 59.9711 163.165 60.2628 177.438 65.4412C191.711 70.6197 201.864 78.7242 200.116 83.5427Z" fill="#FFD686"/>
<path d="M150.288 74.1602C166.722 74.5188 183.153 74.8746 199.628 75.2651C198.692 74.4841 197.662 73.6994 196.542 72.9183C180.158 72.5219 163.801 72.1459 147.47 71.7919C148.307 72.5757 149.251 73.3676 150.288 74.1602Z" fill="#FFDA67"/>
<path d="M203.329 78.9516C202.582 78.0208 201.669 77.0669 200.595 76.1022C184.177 75.7125 167.801 75.3584 151.423 75.001C152.795 75.986 154.313 76.9671 155.95 77.9308C171.759 78.284 187.558 78.629 203.329 78.9516Z" fill="#FFDA67"/>
<path d="M200.116 83.5427C198.368 88.3608 185.38 88.0693 171.107 82.8908C156.834 77.7123 146.68 69.6083 148.429 64.7897C150.177 59.9711 163.165 60.2628 177.438 65.4412C191.711 70.6197 201.864 78.7242 200.116 83.5427Z" fill="#FFD686"/>
<path d="M191.025 71.972C187.294 69.6069 182.642 67.3292 177.438 65.4412C163.165 60.2627 150.177 59.9712 148.429 64.7896C147.793 66.5416 148.737 68.7282 150.874 71.0503C164.24 71.3435 177.624 71.6505 191.025 71.972Z" fill="#FFD686"/>
<path d="M161.918 78.8799C164.694 80.3225 167.787 81.6858 171.107 82.8905C185.38 88.069 198.368 88.3605 200.116 83.5424C200.526 82.4121 200.277 81.1012 199.478 79.6901C186.971 79.4305 174.449 79.1582 161.918 78.8799Z" fill="#FFD686"/>
<path d="M149.331 65.7871C151.079 60.9684 164.067 61.2605 178.34 66.4389C187.136 69.6305 194.363 73.9327 198.208 77.8925C194.673 73.6714 186.98 68.9032 177.438 65.4412C163.165 60.2627 150.177 59.9712 148.429 64.7896C147.758 66.6384 148.845 68.9715 151.239 71.437C149.486 69.3439 148.751 67.3844 149.331 65.7871Z" fill="#FAA955"/>
<path d="M175.61 67.7174L179.133 68.9956L178.777 69.9773C181.588 71.1001 183.917 72.3583 185.765 73.7529L181.288 73.9777C180.019 73.063 178.921 72.3812 177.996 71.9315L177.245 74.0025C182.434 76.5123 184.757 78.517 184.213 80.0167C183.939 80.7717 183.022 81.1577 181.463 81.1758C179.903 81.1937 177.757 80.7985 175.024 79.991L174.572 81.2375L171.112 79.9825L171.559 78.7501L170.987 78.5425C169.684 78.07 168.209 77.394 166.558 76.5142C164.908 75.6347 163.673 74.8268 162.851 74.0908L167.134 73.8691C168.505 74.9882 170.206 75.9946 172.235 76.8874L173.109 74.4802C170.613 73.3265 168.789 72.2319 167.635 71.1973C166.482 70.1626 166.035 69.287 166.294 68.5704C166.57 67.8108 167.457 67.4071 168.956 67.3587C170.454 67.3107 172.555 67.7529 175.259 68.6854L175.61 67.7174ZM173.875 72.3663L174.515 70.6035C173.143 70.2792 172.383 70.3247 172.232 70.7404C172.069 71.1894 172.617 71.7312 173.875 72.3663ZM176.457 76.173L175.781 78.0359C177.283 78.4404 178.124 78.3971 178.302 77.9047C178.465 77.4557 177.85 76.8783 176.457 76.173Z" fill="#FEC463"/>
<path d="M174.759 67.4091L178.282 68.6874L177.926 69.6687C180.737 70.7913 183.066 72.0502 184.914 73.4448L180.437 73.6689C179.168 72.7547 178.07 72.0725 177.145 71.6233L176.393 73.6937C181.583 76.2041 183.905 78.2086 183.361 79.7082C183.088 80.4632 182.171 80.8492 180.611 80.8669C179.052 80.8851 176.906 80.4901 174.173 79.6826L173.72 80.9291L170.261 79.6739L170.708 78.4415L170.135 78.2334C168.833 77.7614 167.357 77.0849 165.708 76.2056C164.057 75.3261 162.821 74.5177 162 73.7823L166.283 73.5605C167.654 74.6796 169.354 75.6855 171.384 76.5787L172.258 74.1715C169.762 73.0177 167.938 71.9231 166.784 70.8885C165.63 69.8535 165.184 68.9781 165.444 68.2616C165.719 67.502 166.606 67.0984 168.105 67.05C169.603 67.0021 171.704 67.4438 174.408 68.3766L174.759 67.4091ZM173.024 72.0582L173.664 70.2954C172.293 69.9711 171.532 70.0166 171.381 70.4318C171.218 70.8812 171.766 71.4231 173.024 72.0582ZM175.606 75.8648L174.93 77.7276C176.432 78.1323 177.273 78.0888 177.451 77.5965C177.614 77.1476 176.999 76.5702 175.606 75.8648Z" fill="#F9A65D"/>
<path d="M175.61 67.7174L179.133 68.9956L178.777 69.9773C181.588 71.1001 183.917 72.3583 185.765 73.7529L181.288 73.9777C180.019 73.063 178.921 72.3812 177.996 71.9315L177.245 74.0025C182.434 76.5123 184.757 78.517 184.213 80.0167C183.939 80.7717 183.022 81.1577 181.463 81.1758C179.903 81.1937 177.757 80.7985 175.024 79.991L174.572 81.2375L171.112 79.9825L171.559 78.7501L170.987 78.5425C169.684 78.07 168.209 77.394 166.558 76.5142C164.908 75.6347 163.673 74.8268 162.851 74.0908L167.134 73.8691C168.505 74.9882 170.206 75.9946 172.235 76.8874L173.109 74.4802C170.613 73.3265 168.789 72.2319 167.635 71.1973C166.482 70.1626 166.035 69.287 166.294 68.5704C166.57 67.8108 167.457 67.4071 168.956 67.3587C170.454 67.3107 172.555 67.7529 175.259 68.6854L175.61 67.7174ZM173.875 72.3663L174.515 70.6035C173.143 70.2792 172.383 70.3247 172.232 70.7404C172.069 71.1894 172.617 71.7312 173.875 72.3663ZM176.457 76.173L175.781 78.0359C177.283 78.4404 178.124 78.3971 178.302 77.9047C178.465 77.4557 177.85 76.8783 176.457 76.173Z" fill="#FEC463"/>
<path opacity="0.4" d="M154.465 74.2518C168.114 74.5488 181.764 74.8466 195.44 75.166C194.512 74.3842 193.468 73.5977 192.318 72.8168C178.755 72.4912 165.209 72.1805 151.682 71.8839C152.486 72.6657 153.419 73.4588 154.465 74.2518Z" fill="#FFF3CE"/>
<path opacity="0.4" d="M198.953 78.8617C198.307 77.9363 197.448 76.9769 196.392 76.0031C182.782 75.6854 169.2 75.3893 155.618 75.0935C157.027 76.0851 158.61 77.0705 160.335 78.0289C173.219 78.3153 186.094 78.5954 198.953 78.8617Z" fill="#FFF3CE"/>
<path d="M300.805 234.616C297.181 229.17 287.678 222.599 275.592 217.728C263.506 212.857 252.102 211.003 245.715 212.413L242.516 211.124L240.673 215.7L240.723 215.72C238.416 221.443 250.289 231.62 267.241 238.452C284.192 245.284 299.803 246.182 302.11 240.46L303.954 235.885L300.805 234.616Z" fill="#F9A65D"/>
<path d="M303.934 235.934C301.628 241.657 286.016 240.758 269.065 233.926C252.113 227.094 240.241 216.917 242.547 211.194C244.853 205.472 260.465 206.37 277.417 213.202C294.368 220.034 306.24 230.211 303.934 235.934Z" fill="#FEC463"/>
<path d="M298.739 233.841C296.823 238.595 283.853 237.848 269.77 232.172C255.688 226.496 245.825 218.041 247.741 213.288C249.657 208.533 262.626 209.28 276.709 214.956C290.792 220.631 300.655 229.086 298.739 233.841Z" fill="#FFD686"/>
<path d="M249.27 222.718C265.682 223.652 282.09 224.583 298.542 225.551C297.634 224.738 296.632 223.917 295.539 223.097C279.18 222.127 262.846 221.178 246.538 220.251C247.347 221.065 248.262 221.89 249.27 222.718Z" fill="#FFDA67"/>
<path d="M302.112 229.365C301.397 228.409 300.519 227.424 299.48 226.422C283.085 225.458 266.732 224.53 250.376 223.598C251.713 224.631 253.195 225.664 254.797 226.685C270.584 227.592 286.361 228.49 302.112 229.365Z" fill="#FFDA67"/>
<path d="M298.739 233.841C296.823 238.595 283.853 237.848 269.77 232.172C255.688 226.496 245.825 218.041 247.741 213.288C249.657 208.533 262.626 209.28 276.709 214.956C290.792 220.631 300.655 229.086 298.739 233.841Z" fill="#FFD686"/>
<path d="M290.06 221.958C286.413 219.464 281.844 217.025 276.709 214.956C262.627 209.28 249.657 208.533 247.741 213.288C247.044 215.016 247.911 217.235 249.965 219.63C263.313 220.391 276.678 221.167 290.06 221.958Z" fill="#FFD686"/>
<path d="M260.729 227.842C263.452 229.381 266.496 230.853 269.771 232.172C283.854 237.848 296.824 238.595 298.74 233.841C299.189 232.726 298.986 231.407 298.237 229.969C285.747 229.271 273.242 228.56 260.729 227.842Z" fill="#FFD686"/>
<path d="M248.608 214.316C250.523 209.562 263.493 210.308 277.576 215.984C286.255 219.482 293.326 224.035 297.031 228.127C293.646 223.785 286.124 218.75 276.709 214.956C262.627 209.28 249.657 208.533 247.741 213.288C247.006 215.112 248.01 217.481 250.317 220.029C248.638 217.876 247.972 215.892 248.608 214.316Z" fill="#FAA955"/>
<path d="M274.803 217.167L278.279 218.568L277.889 219.536C280.658 220.756 282.942 222.096 284.74 223.554L280.258 223.622C279.022 222.663 277.948 221.944 277.039 221.462L276.216 223.505C281.314 226.195 283.566 228.28 282.969 229.76C282.669 230.504 281.739 230.858 280.18 230.822C278.621 230.785 276.49 230.315 273.787 229.412L273.291 230.642L269.878 229.267L270.368 228.05L269.802 227.823C268.518 227.305 267.067 226.578 265.449 225.641C263.83 224.704 262.624 223.853 261.828 223.089L266.116 223.017C267.448 224.184 269.111 225.249 271.109 226.213L272.066 223.837C269.612 222.596 267.827 221.439 266.711 220.364C265.594 219.29 265.179 218.399 265.463 217.693C265.765 216.943 266.666 216.571 268.165 216.575C269.664 216.579 271.748 217.094 274.418 218.121L274.803 217.167ZM272.906 221.752L273.607 220.013C272.248 219.641 271.486 219.659 271.32 220.07C271.142 220.512 271.671 221.073 272.906 221.752ZM275.353 225.647L274.612 227.484C276.099 227.942 276.941 227.928 277.136 227.442C277.315 227 276.72 226.4 275.353 225.647Z" fill="#FEC463"/>
<path d="M273.964 216.829L277.439 218.23L277.049 219.198C279.819 220.418 282.103 221.758 283.9 223.216L279.419 223.284C278.182 222.325 277.109 221.605 276.2 221.124L275.377 223.166C280.475 225.857 282.726 227.942 282.13 229.421C281.83 230.166 280.9 230.52 279.34 230.484C277.781 230.446 275.65 229.976 272.947 229.074L272.451 230.303L269.038 228.928L269.528 227.712L268.963 227.484C267.678 226.966 266.227 226.239 264.609 225.303C262.991 224.365 261.784 223.515 260.988 222.75L265.277 222.679C266.608 223.846 268.272 224.911 270.269 225.874L271.226 223.499C268.773 222.258 266.988 221.1 265.871 220.026C264.754 218.952 264.339 218.061 264.624 217.354C264.926 216.605 265.826 216.232 267.326 216.236C268.825 216.241 270.909 216.756 273.579 217.783L273.964 216.829ZM272.067 221.413L272.768 219.674C271.409 219.303 270.647 219.321 270.481 219.731C270.303 220.174 270.831 220.735 272.067 221.413ZM274.513 225.308L273.773 227.147C275.26 227.604 276.101 227.59 276.297 227.104C276.476 226.661 275.88 226.062 274.513 225.308Z" fill="#F9A65D"/>
<path d="M274.803 217.167L278.279 218.568L277.889 219.536C280.658 220.756 282.942 222.096 284.74 223.554L280.258 223.622C279.022 222.663 277.948 221.944 277.039 221.462L276.216 223.505C281.314 226.195 283.566 228.28 282.969 229.76C282.669 230.504 281.739 230.858 280.18 230.822C278.621 230.785 276.49 230.315 273.787 229.412L273.291 230.642L269.878 229.267L270.368 228.05L269.802 227.823C268.518 227.305 267.067 226.578 265.449 225.641C263.83 224.704 262.624 223.853 261.828 223.089L266.116 223.017C267.448 224.184 269.111 225.249 271.109 226.213L272.066 223.837C269.612 222.596 267.827 221.439 266.711 220.364C265.594 219.29 265.179 218.399 265.463 217.693C265.765 216.943 266.666 216.571 268.165 216.575C269.664 216.579 271.748 217.094 274.418 218.121L274.803 217.167ZM272.906 221.752L273.607 220.013C272.248 219.641 271.486 219.659 271.32 220.07C271.142 220.512 271.671 221.073 272.906 221.752ZM275.353 225.647L274.612 227.484C276.099 227.942 276.941 227.928 277.136 227.442C277.315 227 276.72 226.4 275.353 225.647Z" fill="#FEC463"/>
<path opacity="0.4" d="M253.443 222.955C267.072 223.731 280.703 224.507 294.36 225.306C293.46 224.492 292.444 223.669 291.322 222.849C277.778 222.048 264.252 221.263 250.744 220.491C251.52 221.301 252.425 222.126 253.443 222.955Z" fill="#FFF3CE"/>
<path opacity="0.4" d="M297.741 229.123C297.128 228.176 296.303 227.186 295.282 226.176C281.692 225.382 268.128 224.609 254.564 223.838C255.938 224.878 257.486 225.918 259.175 226.936C272.042 227.674 284.899 228.406 297.741 229.123Z" fill="#FFF3CE"/>
<path d="M127.045 226.301C123.421 220.856 113.919 214.284 101.833 209.414C89.7462 204.543 78.3427 202.689 71.9555 204.1L68.7569 202.811L66.9131 207.385L66.9632 207.406C64.6569 213.129 76.5291 223.306 93.4806 230.138C110.432 236.969 126.043 237.869 128.35 232.146L130.194 227.57L127.045 226.301Z" fill="#F9A65D"/>
<path d="M130.174 227.619C127.868 233.342 112.256 232.442 95.3049 225.611C78.3535 218.779 66.4811 208.602 68.7874 202.879C71.0937 197.156 86.7052 198.055 103.657 204.887C120.609 211.719 132.481 221.896 130.174 227.619Z" fill="#FEC463"/>
<path d="M124.98 225.526C123.064 230.28 110.094 229.534 96.0115 223.858C81.929 218.182 72.0656 209.727 73.9816 204.972C75.8978 200.218 88.8672 200.966 102.95 206.641C117.033 212.316 126.896 220.772 124.98 225.526Z" fill="#FFD686"/>
<path d="M75.5105 214.402C91.9226 215.337 108.331 216.268 124.782 217.236C123.875 216.423 122.872 215.603 121.78 214.782C105.421 213.812 89.0864 212.864 72.7778 211.937C73.5869 212.749 74.5022 213.574 75.5105 214.402Z" fill="#FFDA67"/>
<path d="M128.352 221.052C127.638 220.094 126.759 219.11 125.72 218.108C109.325 217.143 92.9723 216.215 76.6162 215.283C77.9524 216.316 79.4351 217.35 81.0376 218.37C96.8246 219.278 112.602 220.175 128.352 221.052Z" fill="#FFDA67"/>
<path d="M124.98 225.526C123.064 230.28 110.094 229.534 96.0115 223.858C81.929 218.182 72.0656 209.727 73.9816 204.972C75.8978 200.218 88.8672 200.966 102.95 206.641C117.033 212.316 126.896 220.772 124.98 225.526Z" fill="#FFD686"/>
<path d="M116.301 213.644C112.654 211.15 108.085 208.711 102.95 206.641C88.8674 200.966 75.898 200.218 73.9818 204.973C73.2851 206.701 74.1519 208.92 76.2057 211.315C89.5536 212.077 102.918 212.853 116.301 213.644Z" fill="#FFD686"/>
<path d="M86.9688 219.527C89.6919 221.066 92.7359 222.537 96.0114 223.857C110.094 229.533 123.064 230.28 124.98 225.526C125.429 224.411 125.226 223.092 124.477 221.654C111.987 220.955 99.4816 220.245 86.9688 219.527Z" fill="#FFD686"/>
<path d="M74.8478 206.001C76.764 201.247 89.7333 201.994 103.816 207.67C112.495 211.167 119.567 215.72 123.271 219.813C119.887 215.47 112.364 210.435 102.95 206.641C88.867 200.966 75.8977 200.218 73.9815 204.973C73.2464 206.797 74.2504 209.166 76.5567 211.715C74.8783 209.561 74.2127 207.577 74.8478 206.001Z" fill="#FAA955"/>
<path d="M101.044 208.852L104.519 210.253L104.129 211.221C106.899 212.442 109.183 213.781 110.98 215.239L106.499 215.307C105.262 214.348 104.189 213.628 103.28 213.147L102.457 215.19C107.555 217.88 109.806 219.965 109.21 221.445C108.91 222.19 107.98 222.543 106.421 222.507C104.861 222.47 102.73 222.001 100.027 221.097L99.5316 222.327L96.1183 220.951L96.6084 219.735L96.0429 219.508C94.7583 218.99 93.3076 218.262 91.6894 217.326C90.071 216.389 88.8639 215.538 88.0688 214.773L92.3571 214.702C93.6883 215.869 95.3521 216.934 97.3493 217.897L98.3067 215.522C95.8528 214.282 94.0681 213.124 92.9515 212.05C91.835 210.975 91.4188 210.084 91.7038 209.377C92.0057 208.628 92.9063 208.255 94.4056 208.26C95.9048 208.264 97.9893 208.78 100.659 209.806L101.044 208.852ZM99.1468 213.437L99.8476 211.698C98.4886 211.326 97.7267 211.345 97.5612 211.754C97.383 212.198 97.9115 212.759 99.1468 213.437ZM101.593 217.332L100.853 219.17C102.34 219.627 103.181 219.613 103.377 219.127C103.555 218.684 102.961 218.085 101.593 217.332Z" fill="#FEC463"/>
<path d="M100.204 208.513L103.68 209.914L103.29 210.883C106.059 212.103 108.343 213.443 110.141 214.902L105.659 214.969C104.422 214.01 103.35 213.29 102.44 212.809L101.617 214.852C106.715 217.542 108.966 219.627 108.37 221.107C108.07 221.852 107.14 222.205 105.581 222.169C104.021 222.132 101.89 221.662 99.1873 220.759L98.6918 221.989L95.2785 220.613L95.7686 219.398L95.203 219.169C93.9187 218.651 92.4675 217.924 90.8491 216.987C89.2307 216.05 88.0239 215.2 87.2285 214.435L91.5167 214.364C92.848 215.531 94.5123 216.596 96.509 217.559L97.4663 215.184C95.0128 213.944 93.2277 212.785 92.1117 211.711C90.9947 210.637 90.5789 209.746 90.864 209.039C91.1661 208.289 92.0667 207.917 93.5658 207.921C95.0649 207.925 97.1492 208.442 99.819 209.468L100.204 208.513ZM98.3073 213.099L99.0081 211.36C97.6491 210.988 96.8867 211.007 96.7217 211.416C96.5433 211.859 97.0717 212.42 98.3073 213.099ZM100.754 216.993L100.013 218.832C101.5 219.288 102.341 219.274 102.537 218.789C102.716 218.346 102.121 217.748 100.754 216.993Z" fill="#F9A65D"/>
<path d="M101.044 208.852L104.519 210.253L104.129 211.221C106.899 212.442 109.183 213.781 110.98 215.239L106.499 215.307C105.262 214.348 104.189 213.628 103.28 213.147L102.457 215.19C107.555 217.88 109.806 219.965 109.21 221.445C108.91 222.19 107.98 222.543 106.421 222.507C104.861 222.47 102.73 222.001 100.027 221.097L99.5316 222.327L96.1183 220.951L96.6084 219.735L96.0429 219.508C94.7583 218.99 93.3076 218.262 91.6894 217.326C90.071 216.389 88.8639 215.538 88.0688 214.773L92.3571 214.702C93.6883 215.869 95.3521 216.934 97.3493 217.897L98.3067 215.522C95.8528 214.282 94.0681 213.124 92.9515 212.05C91.835 210.975 91.4188 210.084 91.7038 209.377C92.0057 208.628 92.9063 208.255 94.4056 208.26C95.9048 208.264 97.9893 208.78 100.659 209.806L101.044 208.852ZM99.1468 213.437L99.8476 211.698C98.4886 211.326 97.7267 211.345 97.5612 211.754C97.383 212.198 97.9115 212.759 99.1468 213.437ZM101.593 217.332L100.853 219.17C102.34 219.627 103.181 219.613 103.377 219.127C103.555 218.684 102.961 218.085 101.593 217.332Z" fill="#FEC463"/>
<path opacity="0.4" d="M79.6828 214.641C93.3128 215.417 106.944 216.193 120.6 216.991C119.7 216.178 118.684 215.354 117.562 214.534C104.019 213.734 90.4926 212.947 76.9839 212.177C77.76 212.986 78.6655 213.812 79.6828 214.641Z" fill="#FFF3CE"/>
<path opacity="0.4" d="M123.981 220.807C123.368 219.86 122.543 218.871 121.522 217.86C107.932 217.066 94.3678 216.294 80.8047 215.522C82.1781 216.563 83.7256 217.603 85.4155 218.621C98.2816 219.359 111.139 220.09 123.981 220.807Z" fill="#FFF3CE"/>
<path opacity="0.6" d="M274.052 302.835C274.052 312.505 232.201 320.344 180.575 320.344C128.95 320.344 87.0986 312.505 87.0986 302.835C87.0986 293.166 128.95 285.326 180.575 285.326C232.201 285.326 274.052 293.166 274.052 302.835Z" fill="#D9D1E4"/>
<path d="M182.918 177.781C182.906 178.287 181.039 182.711 179.218 181.955C171.849 178.897 167.403 176.554 162.352 173.841C155.47 170.145 149.161 163.672 152.06 159.944C154.619 156.654 163.404 163.8 170.683 169.217C172.23 170.369 174.572 171.201 179.763 174.708C179.763 174.708 182.641 176.442 182.918 177.781Z" fill="#EAB1B8"/>
<path d="M177.157 179.693C177.794 178.701 180.124 176.087 181.808 176.53C183.22 176.901 183.423 177.594 183.422 177.593C186.935 184.789 189.599 191.587 191.312 197.287C192.996 202.892 188.306 199.858 188.306 199.858C184.684 194.419 180.824 189.589 177.157 179.693Z" fill="#EAB1B8"/>
<path d="M177.903 172.068C174.537 169.979 166.874 164.721 165.625 163.791C158.347 158.375 154.232 156.711 151.673 160.002C148.774 163.73 155.813 170.791 162.284 175.165C167.912 178.968 172.476 180.336 179.04 183.118C179.949 180.393 179.511 174.928 177.903 172.068Z" fill="white"/>
<path d="M192.444 199.259C191.792 198.099 191.173 197.201 189.936 196.568L189.832 196.611C189.874 196.746 189.915 196.882 189.957 197.019C189.957 197.019 189.714 196.665 190.006 197.177C190.019 197.219 190.032 197.259 190.045 197.301C189.641 196.972 189.189 196.823 188.698 197.065C187.11 197.847 187.538 199.987 187.952 201.342C188.45 202.977 189.226 205.589 191.205 205.926C192.002 206.062 193.551 206.027 193.975 205.175C194.261 204.601 193.827 202.679 193.712 202.011C193.527 200.937 193.088 200.166 192.444 199.259Z" fill="#EAB1B8"/>
<path d="M189.334 301.143C227.862 301.143 259.095 269.911 259.095 231.383C259.095 192.855 227.862 161.622 189.334 161.622C150.807 161.622 119.574 192.855 119.574 231.383C119.574 269.911 150.807 301.143 189.334 301.143Z" fill="#E26B65"/>
<path d="M234.964 281.434C261.414 254.984 261.414 212.1 234.964 185.65C208.514 159.2 165.63 159.2 139.18 185.65C112.73 212.1 112.73 254.984 139.18 281.434C165.63 307.884 208.514 307.884 234.964 281.434Z" fill="#E76C63"/>
<path d="M240.217 233.542C240.217 262.892 216.424 286.684 187.075 286.684C157.726 286.684 133.933 262.892 133.933 233.542C133.933 204.193 157.726 180.4 187.075 180.4C216.424 180.4 240.217 204.193 240.217 233.542Z" fill="white"/>
<path d="M223.545 233.542C223.545 253.684 207.216 270.012 187.075 270.012C166.933 270.012 150.604 253.684 150.604 233.542C150.604 213.401 166.933 197.073 187.075 197.073C207.217 197.073 223.545 213.401 223.545 233.542Z" fill="#E76C63"/>
<path d="M204.186 233.542C204.186 242.993 196.525 250.654 187.075 250.654C177.624 250.654 169.963 242.993 169.963 233.542C169.963 224.092 177.624 216.432 187.075 216.432C196.525 216.432 204.186 224.092 204.186 233.542Z" fill="white"/>
<path d="M202.76 240.046L185.905 234.983L196.776 218.223L202.76 240.046Z" fill="#4E6AA9"/>
<path d="M272.775 196.58L267.733 206.593L277.994 211.879L270.799 215.055L258.839 209.949L265.513 198.86L272.775 196.58Z" fill="#25557A"/>
<path d="M285.913 192.17L280.872 202.183L291.133 207.469L283.938 210.645L271.978 205.539L278.652 194.451L285.913 192.17Z" fill="#25557A"/>
<path d="M278.488 201.035L191.83 230.192L193.379 234.798L280.038 205.641L278.488 201.035Z" fill="#4E6AA9"/>
<path d="M127.836 137.449C126.792 140.945 126.408 144.742 125.949 148.252C124.407 148.952 122.895 151.08 121.479 152.221C119.328 153.955 116.448 155.191 114.61 157.24C112.095 160.042 112.993 162.743 114.35 165.922C115.872 169.492 118.849 172.989 117.248 177.056C116.15 179.846 113.633 181.736 114.709 185.141C116.215 189.908 123.493 189.674 127.458 189.848C129.975 189.959 132.104 189.61 134.211 188.053C135.918 186.793 136.675 184.595 138.802 183.873C142.284 182.692 147.653 186.241 150.223 183.664C153.912 179.964 154.394 170.888 154.552 166.025C154.64 163.336 153.878 160.946 153.138 158.385C151.932 154.201 153.347 151.759 154.518 147.785C155.383 144.848 154.581 142.522 154.385 139.626C154.231 137.347 154.438 135.553 153.493 133.327C151.802 129.344 148.068 125.622 143.483 125.686C140.66 125.725 137.185 126.215 134.711 127.749C130.951 130.079 128.99 133.579 127.836 137.449Z" fill="#4865A2"/>
<path d="M151.729 267.311C151.729 267.311 148.52 275.514 155.137 301.919C155.667 304.032 157.314 303.898 158.195 303.217C158.786 302.761 158.789 301.899 158.789 301.899C158.789 301.899 161.907 271.816 161.122 268.104C160.336 264.392 151.729 267.311 151.729 267.311Z" fill="#EAB1B8"/>
<path d="M161.609 259.413C161.391 261.418 161.924 268.808 160.72 270.381C158.937 272.709 154.984 273.061 152.861 271.197C151.526 270.025 151.656 266.544 150.985 264.993C150.325 263.467 145.717 234.819 145.35 228.514C144.919 221.103 145.085 223.011 144.984 215.588C144.944 212.653 144.923 209.719 144.912 206.784C144.906 205.035 144.426 202.459 146.652 202.019C149.297 201.497 149.871 196.936 152.172 198.263C155.054 199.927 156.577 205.679 157.671 208.52C160.949 217.03 161.683 226.112 161.72 235.157C161.746 241.558 162.18 247.973 161.867 254.372C161.788 255.964 161.796 257.709 161.609 259.413Z" fill="#EAB1B8"/>
<path d="M167.729 304.626C166.684 304.473 166.36 304.618 165.314 304.447C164.283 304.278 163.268 303.916 162.333 303.452C161.408 302.993 160.062 302.055 159.268 301.421C159.168 301.34 159.067 301.273 158.964 301.213C157.552 301.866 156.743 301.822 155.229 301.181C155.086 301.121 154.992 301.033 154.94 300.931C154.896 300.965 154.857 301.005 154.821 301.051C154.579 301.361 154.536 301.789 154.479 302.165C154.373 302.865 154.044 305.774 154.187 306.463C154.39 307.438 159.694 308.599 161.435 308.707C163.778 308.853 165.567 308.951 167.881 308.577C170.137 308.211 169.497 304.885 167.729 304.626Z" fill="#374D7E"/>
<path d="M137.726 144.718C138.431 146.025 141.016 147.268 141.159 145.922C141.247 145.098 141.03 143.411 140.326 142.104C139.622 140.796 139.8 140.546 138.608 141.189C137.416 141.831 137.022 143.411 137.726 144.718Z" fill="#EAB1B8"/>
<path d="M142.917 146.797C143.141 143.862 151.747 149.319 151.747 149.319L150.826 160.518C150.826 160.518 150.736 160.069 146.504 160.169C143.925 160.229 142.32 161.042 142.448 158.632C142.527 157.143 142.839 147.812 142.917 146.797Z" fill="#EAB1B8"/>
<path d="M142.788 149.628C144.005 153.562 147.501 156.398 151.161 156.106L151.747 149.318C151.747 149.318 143.141 143.86 142.917 146.796C142.893 147.107 142.948 146.189 142.819 147.473C142.871 147.536 142.759 149.535 142.788 149.628Z" fill="#E5958A"/>
<path d="M152.191 150.517C149.869 152.639 145.013 152.4 142.754 150.364C141.387 149.133 140.572 147.712 140.17 145.987C139.719 144.043 139.755 142.178 139.317 140.221C139.128 139.378 138.957 138.523 138.948 137.656C138.934 136.268 139.345 134.87 140.116 133.686C140.873 132.522 142.138 131.875 143.254 131.086C144.198 130.419 145.251 129.601 146.398 129.325C147.189 129.135 147.757 129.577 148.445 129.947C152.179 131.951 154.308 136.919 154.667 140.987C154.935 144.015 154.581 148.334 152.191 150.517Z" fill="#EAB1B8"/>
<path d="M124.162 266.335C124.162 266.335 119.002 273.475 118.8 300.694C118.785 302.874 120.413 303.156 121.436 302.717C122.122 302.423 122.341 301.59 122.341 301.59C122.341 301.59 132.887 273.244 133.056 269.454C133.225 265.664 124.162 266.335 124.162 266.335Z" fill="#EAB1B8"/>
<path d="M124.692 259.634C124.448 261.635 122.812 268.462 123.626 270.268C124.83 272.943 128.48 273.397 130.972 272.067C132.54 271.229 131.678 272.453 132.685 271.097C133.676 269.761 145.779 239.316 147.574 233.261C149.685 226.143 149.089 227.963 150.881 220.759C151.589 217.912 152.28 215.059 152.96 212.204C153.365 210.504 154.42 208.104 152.353 207.168C149.898 206.056 150.379 201.484 147.836 202.251C144.65 203.214 141.855 208.466 140.141 210.983C135.008 218.52 132.22 227.196 130.121 235.993C128.634 242.219 126.748 248.365 125.593 254.667C125.305 256.235 124.9 257.932 124.692 259.634Z" fill="#EAB1B8"/>
<path d="M154.977 203.312C155.641 190.059 158.218 170.562 156.547 168.676C153.607 165.357 157.713 163.416 155.585 160.757C152.403 156.779 142.157 155.927 138.18 161.684C136.831 163.635 138.418 169.01 138.1 170.472C137.395 173.711 137.128 189.847 136.329 202.846L154.977 203.312Z" fill="#EAB1B8"/>
<path d="M154.954 158.574C154.643 158.465 151.43 157.99 151.137 158.087C150.97 158.143 151.115 161.809 150.803 163.37C150.419 165.293 150.092 166.601 149.602 168.452C147.444 165.215 146.586 162.428 144.26 159.311C142.637 157.136 140.141 157.295 138.774 159.106C137.59 160.674 137.528 162.612 136.813 164.372C135.932 166.536 136.187 168.059 136.331 170.454C136.638 175.571 136.561 180.701 136.539 185.824C136.515 191.402 137.015 197.421 136.09 202.949C136.09 202.949 154.976 203.312 154.977 203.312C155.538 202.823 155.389 199.422 155.463 198.718C155.794 195.557 156.13 192.397 156.486 189.238C157.22 182.76 158.443 176.277 158.566 169.757C158.624 166.668 158.14 163.114 156.297 160.542C155.672 159.67 156.145 158.993 154.954 158.574Z" fill="white"/>
<path d="M121.27 136.765C120.767 136.818 116.51 139.04 117.411 140.793C121.06 147.888 123.757 152.128 126.874 156.941C131.118 163.498 138.084 169.259 141.563 166.066C144.634 163.247 136.794 155.073 130.803 148.261C129.529 146.812 128.508 144.546 124.589 139.658C124.589 139.658 122.626 136.932 121.27 136.765Z" fill="#EAB1B8"/>
<path d="M141.225 126.147C141.766 126.304 142.249 126.649 142.93 126.993C144.298 127.683 145.647 128.488 146.517 129.791C147.075 130.626 147.55 131.693 147.927 132.623C148.627 134.354 148.475 136.17 147.392 137.67C146.553 138.831 145.47 139.588 144.203 140.199C143.549 140.514 142.738 140.955 142.311 141.564C142.002 142.007 142.117 142.6 141.821 143.008C140.807 144.403 140.164 142.282 139.833 141.641C140.007 141.977 139.849 141.734 139.36 140.91C138.292 139.104 137.815 137.508 136.163 136.158C134.711 134.973 133.491 132.382 134.053 130.494C134.688 128.362 137.811 126.815 139.748 126.207C140.354 126.017 140.807 126.026 141.225 126.147Z" fill="#4865A2"/>
<path d="M153.304 134.229C152.204 132.052 150.84 129.745 148.913 128.192C147.544 127.088 145.578 125.935 143.82 125.737C142.86 125.628 141.415 125.492 140.548 125.897C140.095 128.506 143.214 131.034 144.855 132.777C145.967 133.959 147.266 133.947 148.576 134.619C149.576 135.133 150.393 135.909 151.304 136.554C152.278 137.243 153.297 137.638 154.114 138.548C154.906 137.842 153.68 134.975 153.304 134.229Z" fill="#4865A2"/>
<path d="M162.812 225.898C162.775 216.854 156.467 198.755 155.53 196.681L136.548 196.088C135.802 197.9 128.41 210.328 127.372 225.899C126.946 232.286 124.516 256.522 124.703 258.226C124.722 258.408 163.093 258.815 163.093 258.815C163.254 257.184 162.838 232.3 162.812 225.898Z" fill="#4865A2"/>
<path d="M117.314 139.909C118.112 140.776 120.858 142.949 122.441 142.223C123.767 141.615 123.848 140.897 123.848 140.898C126.069 133.205 127.522 126.049 128.227 120.139C128.92 114.327 124.823 118.124 124.823 118.124C122.192 124.105 119.221 129.529 117.314 139.909Z" fill="#EAB1B8"/>
<path d="M129.087 116.541C128.916 117.861 128.678 118.926 127.767 119.975H127.655C127.644 119.834 127.631 119.692 127.619 119.55C127.619 119.55 127.526 119.968 127.605 119.384C127.601 119.341 127.598 119.298 127.594 119.255C127.343 119.711 126.979 120.018 126.432 119.977C124.79 119.854 124.596 117.413 124.653 116.194C124.726 114.639 125.257 113.108 125.432 111.522C125.597 110.019 125.544 107.89 126.229 106.535C128.16 106.243 128.34 110.843 128.101 114.775C127.989 116.138 128.7 113.167 129.196 113.097C129.824 112.857 129.296 115.665 129.087 116.541Z" fill="#EAB1B8"/>
<path d="M127.372 141.297C129.729 144.482 135.595 151.691 136.623 152.86C142.615 159.672 144.608 163.637 141.537 166.457C138.058 169.65 130.446 163.21 125.559 157.117C121.309 151.819 119.575 147.381 116.267 141.066C118.908 139.938 124.391 139.928 127.372 141.297Z" fill="white"/>
<path d="M131.582 304.923C130.538 304.771 130.214 304.915 129.168 304.743C128.137 304.575 127.121 304.213 126.187 303.749C125.262 303.29 123.916 302.352 123.122 301.718C123.022 301.637 122.92 301.57 122.818 301.51C121.406 302.162 120.597 302.119 119.083 301.479C118.94 301.417 118.846 301.33 118.794 301.228C118.75 301.262 118.711 301.302 118.675 301.348C118.433 301.658 118.39 302.086 118.333 302.461C118.227 303.162 117.897 306.071 118.041 306.76C118.244 307.735 123.548 308.896 125.289 309.004C127.633 309.149 129.421 309.248 131.734 308.873C133.991 308.508 133.351 305.181 131.582 304.923Z" fill="#374D7E"/>
</svg>
